<?xml version="1.0" standalone="no"?>
<!DOCTYPE svg PUBLIC "-//W3C//DTD SVG 20010904//EN"
 "http://www.w3.org/TR/2001/REC-SVG-20010904/DTD/svg10.dtd">
<svg version="1.0" xmlns="http://www.w3.org/2000/svg"
 width="500.000000pt" height="500.000000pt" viewBox="0 0 500.000000 500.000000"
 preserveAspectRatio="xMidYMid meet">
<metadata>
Created by potrace 1.14, written by Peter Selinger 2001-2017
</metadata>
<g transform="translate(0.000000,500.000000) scale(0.100000,-0.100000)"
fill="#000000" stroke="none">
<path d="M2400 3860 c-55 -16 -132 -62 -176 -107 -46 -46 -120 -185 -109 -204
4 -5 2 -9 -3 -9 -5 0 -8 -12 -6 -26 2 -20 -1 -24 -14 -19 -12 5 -12 1 4 -16
l19 -22 -25 7 c-25 6 -25 6 -2 -5 26 -14 28 -31 7 -49 -12 -10 -16 -9 -21 4
-3 9 -11 16 -16 16 -6 0 -4 -8 3 -17 12 -15 12 -16 -6 -10 -20 7 -20 7 -1 -8
11 -8 24 -21 29 -27 6 -9 7 -8 4 4 -6 18 19 45 31 33 4 -4 1 -10 -5 -12 -7 -3
-13 -9 -13 -14 0 -6 4 -8 9 -5 11 7 24 -41 16 -54 -4 -6 1 -10 9 -10 10 0 16
-9 16 -21 0 -15 -5 -19 -16 -15 -8 3 -13 2 -10 -3 3 -5 -1 -11 -9 -15 -18 -6
-19 -1 -5 24 7 14 6 17 -7 16 -9 0 -18 5 -20 12 -3 8 2 10 14 6 16 -5 16 -4
-1 10 -11 9 -16 16 -11 16 4 0 -2 9 -15 20 -28 25 -33 25 -53 2 -13 -14 -14
-21 -5 -30 9 -9 7 -13 -5 -18 -21 -8 -22 -20 -3 -27 9 -4 13 -1 11 6 -5 15 22
53 31 44 4 -4 1 -13 -5 -21 -7 -8 -10 -20 -7 -25 4 -5 -2 -15 -11 -20 -15 -9
-13 -10 10 -7 22 4 27 2 23 -9 -3 -8 0 -17 6 -21 7 -5 7 -8 0 -13 -7 -4 -8
-12 -2 -21 8 -13 10 -12 10 3 0 9 5 17 10 17 14 0 12 -28 -2 -33 -7 -2 -9 -8
-5 -13 4 -5 13 -2 18 6 8 12 9 11 5 -5 -6 -23 8 -50 26 -50 7 0 12 -8 10 -18
-3 -20 9 -22 26 -5 7 7 12 8 12 2 0 -6 -4 -14 -10 -20 -6 -6 -6 -15 0 -24 5
-8 10 -10 10 -4 0 6 6 11 13 11 6 0 18 2 26 4 7 2 15 -1 18 -7 2 -6 -3 -11
-12 -12 -8 -1 -22 -3 -30 -4 -8 -1 -12 -5 -9 -10 3 -5 10 -6 15 -2 5 3 9 2 8
-3 -1 -4 0 -11 1 -15 1 -5 3 -14 4 -20 1 -7 8 -12 15 -10 7 1 10 -2 7 -7 -3
-5 2 -8 11 -7 9 0 18 -5 20 -12 3 -8 -2 -10 -14 -6 -13 4 -14 3 -5 -4 8 -5 14
-13 15 -18 1 -5 10 -8 20 -8 9 1 17 -3 17 -7 0 -5 -9 -9 -20 -9 -13 0 -28 13
-41 35 -12 19 -25 35 -29 35 -4 0 -11 11 -14 25 -4 16 -11 23 -18 19 -7 -4 -8
-3 -4 5 4 6 0 14 -8 17 -9 3 -14 9 -12 13 3 4 -9 22 -25 40 -16 19 -29 37 -29
40 0 3 -11 19 -25 34 -14 15 -23 27 -20 27 4 0 -5 14 -19 31 -14 17 -24 34
-21 39 3 5 -3 11 -12 15 -10 3 -49 53 -88 112 -85 128 -157 191 -255 221 -8 3
-55 5 -105 5 -80 1 -97 -3 -149 -28 -101 -51 -182 -149 -202 -247 -12 -58 -6
-230 8 -221 5 2 8 -1 8 -8 0 -7 11 -27 26 -46 14 -18 22 -33 19 -33 -3 0 3
-10 15 -22 11 -12 20 -28 20 -35 0 -9 5 -11 13 -7 6 4 9 4 5 -1 -4 -4 -3 -14
2 -20 7 -9 5 -17 -7 -26 -15 -12 -16 -12 -11 2 8 20 -6 46 -16 30 -4 -6 -2
-11 4 -11 8 0 8 -6 0 -20 -6 -11 -16 -20 -22 -20 -7 0 -6 5 2 15 6 8 9 19 5
25 -4 6 -1 17 5 25 10 11 10 15 1 15 -7 0 -10 4 -7 9 3 5 -1 12 -10 15 -9 3
-14 13 -11 20 3 8 -1 17 -9 20 -23 9 -31 7 -15 -3 7 -5 14 -21 14 -36 0 -16 3
-22 7 -15 5 8 9 7 14 -5 9 -23 8 -25 -9 -19 -8 4 -15 1 -15 -6 0 -6 5 -8 10
-5 6 3 10 0 10 -7 0 -8 -8 -14 -19 -15 -16 -1 -18 5 -16 43 1 28 -3 48 -11 55
-10 8 -14 8 -14 0 0 -6 5 -11 10 -11 6 0 10 -5 10 -11 0 -5 -4 -8 -10 -4 -12
8 -8 -48 5 -57 7 -5 6 -8 -1 -8 -5 0 -10 -18 -11 -40 -1 -36 5 -45 29 -42 3 1
8 -5 11 -12 6 -14 -9 -16 -29 -3 -7 4 -14 -1 -17 -13 -3 -11 -1 -18 3 -15 5 3
11 1 15 -5 3 -5 2 -10 -3 -10 -5 0 -9 -11 -9 -25 0 -26 11 -33 23 -13 4 6 3 8
-3 5 -5 -3 -10 0 -10 7 0 7 6 13 13 13 7 0 12 -5 11 -10 -1 -6 15 -11 35 -12
20 -1 35 1 33 5 -2 3 6 7 18 7 21 2 21 1 -3 -18 -14 -12 -19 -17 -11 -13 10 5
12 3 7 -7 -4 -8 0 -5 8 5 9 11 16 15 16 10 0 -6 -5 -15 -11 -21 -8 -8 -7 -13
2 -18 8 -6 10 -4 5 6 -4 8 0 5 10 -6 14 -17 16 -18 10 -2 -4 12 -2 16 6 11 7
-5 8 -3 3 6 -5 9 -4 11 3 6 8 -5 10 -1 6 11 -5 15 -4 16 5 3 9 -13 11 -13 11
0 0 12 2 12 9 2 7 -11 9 -10 14 3 5 11 3 14 -6 9 -7 -5 -6 0 3 12 14 18 14 18
-4 4 -16 -12 -18 -12 -11 -1 6 10 4 12 -5 6 -9 -6 -11 -4 -5 5 5 8 4 11 -3 6
-11 -7 -11 12 1 31 5 8 1 11 -15 8 -22 -4 -22 -4 -4 10 11 8 14 15 8 15 -7 0
-12 5 -12 10 0 19 15 10 32 -20 10 -17 17 -33 17 -36 0 -3 9 -14 20 -24 13
-11 19 -24 15 -34 -4 -10 -2 -16 5 -14 7 2 24 -12 38 -29 25 -33 25 -33 4 -33
-12 0 -19 -4 -16 -10 3 -6 17 -8 31 -6 14 3 22 1 19 -5 -4 -5 1 -16 9 -25 9
-9 13 -21 9 -27 -4 -7 0 -8 11 -4 10 4 15 3 11 -4 -4 -5 -15 -7 -24 -4 -11 3
-18 0 -18 -9 0 -9 9 -14 21 -13 21 2 23 -4 11 -36 -6 -13 -3 -16 9 -11 9 3 13
10 10 15 -3 5 3 6 12 2 15 -6 15 -4 -1 23 l-18 29 26 -30 c26 -31 27 -48 3
-39 -10 4 -13 -4 -10 -31 2 -26 -2 -38 -17 -45 -13 -7 -19 -7 -19 0 0 20 -3
25 -22 39 -27 19 -48 -1 -30 -29 6 -11 12 -23 12 -27 0 -5 -5 0 -11 10 -8 14
-14 16 -25 6 -7 -6 -11 -16 -8 -21 4 -6 10 -5 15 3 5 8 9 9 9 3 0 -17 -27 -37
-42 -31 -8 3 -6 6 5 6 10 1 16 5 12 11 -3 5 -13 6 -23 3 -11 -5 -8 2 9 18 32
30 41 53 26 68 -16 16 -31 13 -17 -4 9 -11 8 -19 -7 -39 -10 -14 -24 -28 -32
-31 -10 -4 -9 1 4 15 10 11 14 20 8 20 -15 0 -54 -36 -46 -44 3 -3 2 -6 -4 -6
-23 0 -21 15 7 35 16 12 27 24 25 27 -3 3 6 4 20 2 15 -1 25 2 23 8 -2 6 -24
12 -48 13 -37 2 -41 0 -27 -10 14 -10 15 -14 4 -24 -8 -6 -17 -8 -20 -4 -4 3
-7 1 -7 -5 0 -7 -5 -12 -11 -12 -5 0 -8 4 -5 9 3 5 -3 11 -14 14 -11 3 -20 11
-20 19 0 9 2 10 8 1 10 -16 65 -26 59 -10 -2 7 -12 12 -23 12 -11 0 -18 6 -16
14 2 8 -3 11 -11 8 -9 -3 -13 4 -12 22 0 19 5 26 18 25 10 -1 17 2 15 8 -2 5
-6 8 -8 6 -3 -1 -20 7 -37 20 -18 13 -33 19 -33 13 0 -6 9 -15 20 -21 11 -6
17 -16 14 -25 -4 -8 -10 -12 -15 -9 -5 3 -9 0 -9 -5 0 -6 4 -11 9 -11 14 0 10
-48 -5 -54 -8 -3 -14 -1 -14 4 0 6 4 10 9 10 8 0 8 9 1 40 -3 15 -22 -36 -25
-66 l-3 -36 24 23 c13 12 24 19 24 15 0 -11 -73 -76 -85 -75 -5 0 -4 3 3 6 10
4 10 8 1 19 -7 9 -8 14 -1 14 6 0 12 -5 14 -12 3 -8 6 -9 11 -1 4 6 -3 22 -14
37 -23 29 -19 35 5 10 15 -14 16 -14 16 1 0 8 -7 18 -15 21 -10 4 -13 13 -10
25 5 14 2 17 -9 13 -19 -7 -21 -55 -3 -73 10 -10 9 -11 -3 -6 -13 4 -14 -8
-10 -85 3 -57 1 -90 -5 -90 -5 0 -3 -5 5 -10 12 -8 12 -10 1 -10 -11 0 -11 -3
0 -17 12 -14 12 -16 0 -9 -9 6 -12 5 -9 -5 3 -8 14 -13 24 -12 10 1 13 0 6 -3
-6 -3 -10 -10 -7 -15 4 -5 0 -7 -7 -4 -11 4 -13 -69 -13 -387 0 -470 -1 -464
104 -569 83 -83 149 -111 266 -114 124 -3 220 36 302 123 40 42 80 115 168
307 92 199 106 225 116 225 5 0 8 4 5 9 -3 5 1 14 9 21 8 7 12 16 9 21 -3 5 0
8 8 7 8 -2 12 5 10 20 -1 15 2 22 10 19 7 -2 11 -13 9 -23 -3 -18 -2 -18 15
-3 29 24 44 31 44 20 0 -6 -5 -11 -11 -11 -22 0 -41 -32 -40 -68 2 -78 1 -74
17 -61 8 7 11 16 6 23 -15 19 -9 71 8 71 8 0 14 -8 14 -17 -2 -18 7 -23 19
-11 4 3 0 17 -8 30 -15 22 -10 29 18 24 4 0 7 3 7 7 0 5 7 17 16 28 15 18 15
18 5 -3 -8 -15 -8 -24 0 -28 7 -5 5 -15 -5 -30 -15 -22 -14 -24 4 -22 13 1 19
6 15 15 -2 7 -1 11 4 8 13 -8 7 -69 -7 -74 -11 -3 -17 10 -13 31 1 5 -4 7 -11
4 -7 -2 -11 -11 -9 -18 2 -8 4 -20 4 -27 0 -7 7 -10 15 -7 8 3 20 0 28 -6 10
-8 13 -6 13 8 0 10 2 29 4 43 2 14 -2 35 -10 48 -7 12 -9 22 -4 22 5 0 13 -9
16 -20 4 -11 10 -18 14 -15 12 7 34 -44 38 -85 5 -58 6 -61 17 -57 6 3 9 11 7
18 -1 8 -4 24 -6 36 -2 19 1 20 21 11 13 -6 21 -15 18 -19 -3 -5 6 -14 20 -20
14 -7 23 -15 21 -20 -3 -4 4 -10 15 -14 11 -3 20 -11 20 -16 0 -6 -10 -3 -21
5 -12 8 -26 13 -33 12 -6 -2 -8 -1 -3 1 4 3 7 9 7 14 0 6 -4 8 -8 5 -5 -3 -15
6 -22 19 -7 13 -17 22 -21 19 -5 -3 -1 -16 8 -30 13 -21 14 -27 3 -34 -7 -4
-20 -5 -29 -2 -13 5 -14 3 -5 -9 7 -8 10 -26 9 -40 -2 -19 1 -26 10 -25 18 3
32 16 18 16 -6 0 -10 10 -9 23 1 18 7 22 35 22 20 0 35 -5 37 -13 1 -7 0 -8
-3 -2 -2 5 -9 10 -14 10 -6 0 -7 -5 -4 -11 4 -6 0 -9 -10 -7 -10 2 -20 -2 -22
-8 -5 -16 56 -12 66 5 6 9 11 10 15 2 4 -6 12 -8 18 -5 6 4 8 2 5 -3 -4 -6 0
-14 9 -17 9 -4 14 -9 11 -13 -4 -3 -13 0 -22 7 -8 7 -15 8 -15 2 0 -5 7 -16
16 -23 14 -11 18 -10 30 6 8 10 14 14 14 8 0 -7 -5 -15 -10 -18 -6 -4 -8 -11
-5 -16 3 -5 -1 -6 -10 -3 -11 4 -14 2 -9 -9 5 -14 10 -14 52 0 26 9 66 29 90
45 34 23 42 34 38 51 -3 12 -3 16 0 10 8 -19 27 -16 20 3 -3 8 -2 13 3 9 13
-7 52 45 44 58 -4 6 -1 7 6 3 8 -5 14 0 18 13 3 12 9 21 14 21 5 0 6 7 2 16
-5 14 -3 15 15 5 29 -16 37 -14 21 6 -11 13 -11 15 -1 9 9 -5 12 -3 10 5 -4
22 32 69 53 69 11 0 19 4 19 10 0 5 -8 7 -17 4 -15 -5 -15 -4 -3 4 8 6 18 8
22 6 4 -3 8 0 8 5 0 6 -6 11 -12 11 -7 0 -4 7 7 16 11 8 19 23 18 32 -1 9 0
11 3 5 9 -20 23 -15 19 6 -2 11 5 27 16 37 10 9 19 23 19 31 0 7 5 13 11 13 6
0 9 -7 6 -15 -4 -8 -3 -17 2 -19 12 -8 10 27 -3 43 -8 11 -8 13 1 8 7 -4 13 0
16 10 3 10 3 -6 2 -35 -2 -29 0 -50 5 -47 7 4 6 -24 0 -32 -7 -8 -5 -30 3 -47
6 -13 6 -16 -2 -12 -6 4 -11 2 -11 -3 0 -6 6 -11 13 -11 8 0 7 -4 -3 -10 -11
-7 -12 -10 -2 -10 10 0 10 -4 -2 -16 -24 -23 -19 -26 12 -8 18 11 21 11 10 2
-10 -8 -15 -18 -12 -21 3 -3 -5 -4 -18 -3 -27 3 -70 25 -50 26 7 0 10 5 6 11
-4 7 -1 10 7 7 8 -3 13 -11 11 -18 -2 -11 0 -11 11 -1 21 17 14 47 -9 43 -15
-3 -16 -1 -5 12 7 9 18 13 25 9 6 -4 5 1 -3 10 -10 13 -10 17 -1 17 9 0 10 3
1 13 -7 9 -7 17 0 24 7 7 6 12 -4 16 -11 4 -13 -2 -11 -25 3 -26 2 -29 -11
-18 -11 9 -12 16 -5 25 8 10 8 15 -1 21 -8 5 -9 3 -4 -6 5 -8 4 -11 -3 -6 -11
7 -11 -12 1 -31 7 -12 -3 -18 -25 -14 -4 0 -5 -7 -2 -17 5 -13 4 -14 -4 -3 -7
9 -12 10 -16 2 -4 -6 -2 -11 4 -11 6 0 2 -13 -10 -30 -12 -16 -24 -29 -28 -27
-6 2 -13 -8 -11 -15 0 -2 2 -14 5 -28 3 -19 2 -21 -6 -10 -5 8 -10 11 -10 6 0
-5 8 -19 18 -30 l17 -21 -24 20 c-14 11 -21 14 -16 6 5 -8 4 -12 -1 -8 -5 3
-18 -1 -29 -9 -10 -8 -13 -14 -6 -14 7 0 10 -4 7 -9 -3 -5 4 -20 15 -35 11
-14 17 -31 13 -37 -5 -8 -3 -9 6 -4 10 6 12 4 7 -8 -6 -17 15 -41 27 -30 4 4
5 -5 2 -21 -4 -22 -2 -25 9 -16 8 6 16 7 19 2 3 -6 -1 -13 -10 -16 -12 -5 -14
-10 -5 -20 6 -7 8 -16 4 -19 -3 -4 -1 -7 5 -7 15 0 15 13 0 28 -8 8 -8 12 -1
12 21 0 35 -28 24 -49 -14 -26 -14 -32 2 -29 6 2 11 -5 11 -14 -1 -10 2 -18 7
-18 12 0 11 27 -1 35 -5 3 -10 14 -10 23 1 16 2 16 14 0 15 -20 31 -25 20 -6
-5 8 -2 9 9 5 10 -3 17 -2 17 4 0 6 -10 9 -22 7 -11 -2 -23 3 -25 10 -3 8 2
10 14 6 15 -5 16 -4 3 5 -13 10 -13 12 0 21 12 9 12 10 -5 8 -14 -2 -21 4 -23
21 -2 15 0 21 7 16 6 -3 9 -10 7 -14 -3 -4 6 -8 19 -9 19 -1 23 3 23 21 -1 12
-6 28 -11 35 -14 18 1 28 21 15 15 -9 22 -6 39 13 13 14 17 26 11 32 -6 6 -6
12 1 17 6 3 10 2 9 -4 -2 -5 6 -16 16 -24 21 -16 14 -38 -12 -36 -15 1 -15 2
1 6 9 2 17 9 17 14 0 19 -25 7 -48 -22 -10 -13 -10 -22 -1 -43 7 -14 16 -23
20 -20 5 3 6 -1 3 -9 -3 -8 2 -14 11 -14 10 0 14 6 10 14 -3 8 -5 19 -5 24 0
5 -5 8 -12 7 -6 -2 -14 5 -16 15 -2 9 1 17 7 17 6 0 8 -6 5 -13 -3 -8 4 -13
17 -14 16 -2 18 1 9 12 -9 10 -7 15 9 20 10 3 25 13 33 22 11 15 11 16 -6 9
-19 -7 -19 -6 -1 14 19 21 8 29 -13 8 -9 -9 -12 -9 -12 0 0 7 6 12 13 12 8 0
7 3 -3 10 -11 7 -17 5 -22 -8 -6 -14 -7 -15 -7 -1 -1 9 2 19 5 22 9 8 84 -33
84 -46 0 -5 -6 -4 -14 2 -11 9 -13 7 -13 -12 0 -15 6 -23 18 -24 10 -1 18 1
18 5 -3 20 2 32 11 27 6 -3 10 -3 10 2 0 4 -18 19 -39 32 -28 17 -37 29 -33
40 5 14 3 14 -11 2 -11 -9 -17 -10 -17 -2 0 6 5 11 11 11 5 0 8 4 4 9 -3 5 -1
13 5 16 6 4 10 3 9 -2 -5 -21 23 -64 51 -78 34 -18 38 -30 13 -44 -14 -8 -15
-10 -3 -10 8 0 24 6 34 14 11 8 15 15 8 15 -7 0 -11 15 -10 36 1 29 5 35 19
31 21 -6 62 20 54 34 -4 5 -1 9 5 9 7 0 9 -8 4 -22 -6 -20 -5 -21 9 -9 9 7 15
16 13 20 -3 4 9 14 25 23 18 11 29 13 29 6 0 -18 14 0 17 22 2 11 -2 20 -7 20
-6 0 -10 -4 -10 -9 0 -5 -8 -12 -17 -15 -14 -6 -14 -4 2 16 11 13 21 25 23 28
9 13 20 -28 17 -62 -2 -26 1 -38 8 -35 7 2 11 17 10 34 -1 29 0 30 41 28 23
-1 47 -4 53 -8 5 -3 18 0 28 7 15 11 21 10 37 -6 19 -19 38 -24 38 -9 0 5 -9
13 -20 16 -25 8 -26 21 -1 21 11 0 17 -4 15 -8 -3 -4 2 -5 10 -2 9 3 16 1 16
-6 0 -6 -5 -8 -12 -3 -8 4 -7 -3 3 -17 9 -14 15 -33 13 -42 -2 -14 2 -16 14
-9 10 4 23 6 31 3 10 -3 11 1 6 18 -5 15 -4 20 4 16 6 -4 9 -2 5 7 -3 8 1 14
10 14 8 0 14 -9 13 -19 -1 -10 -5 -18 -10 -18 -5 0 -7 -7 -3 -15 5 -15 1 -17
-39 -19 -11 -1 -19 -7 -17 -13 1 -7 -2 -13 -6 -13 -4 0 -8 -9 -9 -21 -2 -17 1
-18 13 -8 8 6 17 9 21 5 3 -3 0 -6 -8 -6 -12 0 -11 -2 1 -11 12 -9 12 -10 -3
-5 -12 4 -17 2 -14 -6 2 -7 11 -12 20 -12 9 1 16 -1 15 -5 0 -3 1 -8 2 -11 9
-22 3 -52 -13 -72 -10 -12 -15 -16 -11 -8 6 12 5 13 -7 4 -8 -6 -22 -10 -32
-9 -9 2 -15 0 -12 -4 2 -5 -1 -16 -8 -25 -14 -19 -51 -11 -43 9 2 7 -1 20 -7
29 -11 15 -13 14 -26 -6 -13 -22 -13 -22 4 -8 17 14 17 14 4 -7 -9 -15 -16
-18 -21 -10 -4 6 -1 18 5 27 10 13 10 13 -4 3 -20 -16 -33 -5 -17 14 8 11 7
12 -6 7 -19 -7 -20 -16 -3 -33 10 -11 8 -11 -10 0 -12 7 -19 18 -16 24 4 5 -3
2 -15 -8 -22 -20 -47 -14 -38 8 3 9 -3 12 -19 10 -15 -1 -22 2 -18 8 4 6 1 7
-7 2 -9 -5 -11 -4 -6 3 5 8 2 10 -9 6 -14 -6 -14 -8 2 -20 17 -13 17 -14 1 -8
-11 4 -18 1 -18 -6 0 -6 4 -9 9 -5 5 3 13 0 17 -6 4 -8 3 -9 -5 -5 -7 5 -10 2
-9 -6 2 -7 -3 -12 -11 -10 -12 3 -12 1 0 -15 13 -17 13 -17 -7 0 -11 9 -24 14
-29 10 -4 -5 -4 -1 0 7 6 10 1 9 -13 -3 -11 -11 -25 -16 -31 -13 -5 4 -13 1
-16 -5 -4 -5 -12 -8 -19 -6 -6 3 -20 -1 -31 -9 -10 -8 -14 -14 -9 -14 6 0 14
3 20 8 5 4 -4 -5 -21 -20 -16 -15 -37 -25 -45 -23 -9 3 -7 -1 4 -10 11 -8 14
-15 8 -15 -14 0 -12 -21 3 -33 6 -5 2 -6 -8 -3 -12 4 -16 2 -11 -6 5 -7 3 -8
-6 -3 -9 6 -11 4 -5 -5 5 -9 4 -11 -4 -6 -9 6 -9 11 1 24 11 13 11 14 -1 7 -9
-5 -12 -4 -7 3 3 6 1 14 -5 18 -8 5 -9 3 -4 -6 5 -9 4 -11 -4 -6 -6 4 -8 13
-4 19 4 7 -2 5 -13 -3 -29 -22 -30 -24 -13 -18 9 4 16 1 16 -7 0 -7 -7 -11
-15 -8 -11 5 -13 1 -8 -15 4 -11 3 -23 -2 -25 -4 -3 -7 6 -7 21 2 36 -4 45
-20 32 -9 -8 -15 -8 -20 0 -3 5 2 10 12 11 10 0 13 3 6 5 -7 3 -20 1 -30 -5
-11 -6 -13 -11 -5 -11 7 0 10 -5 6 -12 -4 -6 -3 -8 3 -5 15 9 26 -24 13 -37
-7 -7 -10 -5 -10 7 0 19 -15 23 -26 5 -4 -6 -3 -8 3 -5 6 4 14 0 17 -9 3 -8
10 -13 14 -10 10 6 48 -35 44 -47 -1 -5 2 -6 8 -2 5 3 10 1 10 -4 0 -6 -8 -11
-17 -12 -14 0 -14 -2 4 -9 12 -5 24 -18 28 -30 6 -18 9 -19 22 -8 14 11 15 10
9 -12 -6 -23 -6 -24 6 -5 12 19 56 36 45 18 -3 -5 -2 -15 3 -23 5 -8 3 -22 -7
-36 -13 -21 -13 -22 6 -17 12 3 21 10 21 15 0 5 5 6 10 3 8 -5 7 -12 -2 -23
-8 -10 -8 -13 -1 -9 6 4 13 4 16 0 2 -5 2 -2 1 5 -5 21 12 13 25 -10 11 -23
11 -23 6 2 -6 25 -6 25 10 -2 16 -29 41 -32 69 -9 8 7 21 9 27 5 9 -5 7 -10
-7 -15 -11 -4 3 -6 33 -4 29 1 59 8 67 15 9 6 21 9 28 5 7 -4 4 1 -6 9 -15 12
-16 16 -5 16 8 0 20 -5 25 -10 16 -16 44 -1 36 18 -5 14 -3 15 10 5 12 -11 18
-9 33 7 10 11 22 17 26 14 5 -3 6 2 3 11 -4 9 -13 13 -23 11 -9 -3 -23 -1 -31
5 -12 8 -10 9 7 4 15 -4 29 1 43 15 l22 22 -7 -21 c-4 -13 -2 -21 5 -21 6 0 9
4 6 9 -3 4 1 17 9 27 14 18 14 18 10 -4 -2 -13 0 -20 6 -16 6 3 8 8 5 12 -3 3
3 19 14 37 11 18 17 35 13 38 -3 4 2 9 11 13 16 6 16 8 0 25 -19 21 -6 26 15
7 10 -9 12 -9 7 -1 -3 6 -2 14 3 17 10 7 9 25 -2 44 -5 7 -3 12 3 12 7 0 10 6
7 14 -3 8 -1 17 6 20 9 3 8 5 -1 5 -8 1 -10 6 -5 14 9 15 11 67 3 67 -12 0 -7
30 4 30 6 0 3 5 -6 11 -10 5 -18 15 -18 21 0 6 7 5 18 -3 15 -13 16 -12 3 3
-7 10 -16 16 -20 14 -4 -3 -12 9 -18 25 -10 27 -9 31 13 46 14 9 23 22 20 29
-3 7 0 15 7 18 9 3 8 5 -1 5 -8 1 -10 6 -5 14 11 17 12 67 1 67 -5 0 -6 6 -1
13 12 19 11 561 -1 569 -7 5 -7 8 2 8 6 0 12 5 12 11 0 5 -6 7 -12 3 -10 -6
-10 -4 0 7 6 7 12 26 12 42 0 20 -4 26 -12 21 -10 -6 -10 -4 -2 7 8 9 12 115
14 324 1 171 3 337 4 370 4 137 -52 248 -158 319 -139 92 -329 82 -448 -23
-34 -29 -114 -139 -111 -151 1 -3 -5 -9 -13 -13 -8 -4 -14 -15 -14 -22 0 -8
-4 -15 -10 -15 -5 0 -10 -5 -10 -10 0 -6 -9 -21 -20 -33 -18 -18 -22 -20 -30
-7 -5 8 -10 21 -10 28 0 6 -5 12 -11 12 -5 0 -8 4 -5 8 3 5 -6 26 -18 48 -13
23 -26 53 -30 68 -4 16 -11 24 -18 20 -6 -4 -8 -3 -5 3 8 13 -17 65 -27 56 -4
-4 -4 0 -1 8 8 20 -55 144 -100 197 -40 47 -110 92 -176 114 -47 16 -175 21
-219 8z m-337 -510 c8 -11 13 -32 11 -45 -1 -14 2 -23 6 -20 5 3 12 1 15 -5 4
-6 -5 -10 -23 -8 -25 2 -29 6 -25 23 10 45 8 50 -16 47 -20 -2 -22 0 -11 13
17 20 26 19 43 -5z m1021 -68 c3 -5 -1 -9 -9 -9 -8 0 -12 4 -9 9 3 4 7 8 9 8
2 0 6 -4 9 -8z m-919 -21 c-3 -5 1 -16 9 -24 8 -8 12 -17 9 -21 -4 -3 -1 -6 6
-6 7 0 9 -4 6 -10 -3 -5 -1 -10 5 -10 6 0 9 -4 6 -9 -3 -5 4 -20 15 -35 11
-14 17 -26 13 -26 -5 0 -3 -5 3 -11 6 -6 9 -18 6 -27 -5 -11 -3 -13 7 -7 9 6
11 4 6 -4 -6 -9 -12 -9 -25 3 -10 9 -20 14 -23 11 -3 -3 -15 -8 -28 -10 -17
-3 -19 -1 -11 9 6 7 22 12 35 11 19 -2 24 1 23 16 -2 22 -17 26 -17 4 0 -8 -4
-15 -9 -15 -5 0 -8 11 -8 25 0 13 4 22 8 19 5 -3 2 11 -8 31 -14 29 -21 35
-39 31 -19 -5 -22 -2 -19 19 2 21 0 23 -12 13 -11 -9 -11 -13 -1 -19 10 -7 10
-9 -2 -9 -13 0 -13 -1 0 -10 8 -5 11 -10 6 -10 -6 0 -5 -5 1 -11 8 -8 17 -8
32 0 21 12 27 5 13 -14 -10 -14 -32 -17 -46 -8 -7 4 -3 0 7 -10 16 -14 22 -15
35 -5 13 11 15 10 9 -5 -5 -12 -3 -16 5 -11 7 5 8 3 4 -5 -5 -7 -11 -10 -14
-7 -3 3 -11 1 -19 -6 -11 -8 -12 -7 -7 6 5 14 0 18 -22 15 -13 -2 -22 25 -20
57 3 26 -2 34 -22 44 -18 8 -22 14 -14 22 8 8 15 8 24 0 9 -7 20 -7 38 3 29
17 44 19 35 6z m741 -17 c1 -9 0 -13 -4 -10 -3 4 -7 14 -8 22 -1 9 0 13 4 10
3 -4 7 -14 8 -22z m-746 -54 c-8 -5 -19 -10 -25 -10 -5 0 -3 5 5 10 8 5 20 10
25 10 6 0 3 -5 -5 -10z m703 -125 c-7 -21 -12 -19 -10 4 0 11 5 18 9 15 4 -3
5 -11 1 -19z m-29 -3 c3 -5 -1 -9 -9 -9 -8 0 -12 4 -9 9 3 4 7 8 9 8 2 0 6 -4
9 -8z m-571 -19 c-5 -12 -3 -14 8 -8 8 4 11 4 6 0 -4 -5 0 -17 10 -27 9 -10
12 -18 8 -18 -4 0 0 -9 10 -20 10 -11 15 -20 10 -20 -4 0 -1 -8 6 -17 10 -11
10 -14 2 -9 -7 4 -13 2 -13 -3 0 -6 7 -11 15 -11 10 0 15 -7 13 -17 -2 -10 2
-17 9 -16 7 2 10 -7 7 -23 -3 -14 -1 -23 4 -20 8 5 24 -20 35 -54 7 -24 7 -30
0 -29 -4 0 -10 -8 -14 -18 -7 -17 -8 -17 -8 0 -1 11 -6 15 -13 11 -6 -4 -8 -3
-4 4 3 6 2 13 -4 17 -5 3 -14 15 -20 25 -8 16 -7 18 9 15 13 -2 18 1 15 9 -3
7 -16 13 -29 12 -14 -1 -24 4 -22 9 1 6 5 9 9 8 4 -2 5 4 1 12 -4 13 -8 13
-21 3 -12 -10 -14 -10 -8 0 4 6 2 12 -3 12 -17 0 -13 21 6 35 21 15 9 35 -18
30 -18 -4 -19 -2 -8 12 11 13 10 18 -10 34 -13 10 -28 16 -34 12 -5 -3 -7 -1
-3 5 3 6 2 13 -3 17 -11 6 -3 37 8 31 3 -2 15 0 26 5 11 4 21 8 22 8 1 1 -1
-6 -4 -16z m547 -27 c0 -2 -8 -10 -17 -17 -16 -13 -17 -12 -4 4 13 16 21 21
21 13z m-63 -65 c0 -11 -5 -18 -9 -15 -4 3 -5 11 -1 19 7 21 12 19 10 -4z
m-1498 -27 c-14 -17 8 -29 26 -14 8 7 15 10 15 6 0 -4 12 2 27 11 15 10 24 13
20 6 -4 -6 -3 -14 2 -17 10 -7 9 -52 -2 -63 -12 -12 -7 -25 7 -20 9 4 13 0 11
-11 -1 -9 5 -25 13 -35 9 -10 11 -17 5 -15 -6 2 -18 -6 -26 -16 -13 -18 -14
-18 -12 5 3 38 -5 52 -21 38 -8 -6 -14 -8 -14 -5 0 4 -6 4 -12 -1 -20 -12 -57
-11 -55 1 1 6 -5 10 -13 8 -8 -2 -12 0 -8 4 4 4 3 13 -3 20 -8 10 -6 12 13 8
12 -3 29 -6 36 -6 6 -1 12 -5 12 -10 0 -5 5 -6 11 -2 8 4 7 9 -2 16 -11 8 -11
9 1 5 9 -3 24 1 35 9 12 9 14 14 5 14 -10 0 -9 5 4 19 16 17 15 18 -9 16 -14
-2 -25 1 -25 6 0 6 -5 7 -11 3 -8 -5 -8 -9 1 -14 10 -6 10 -9 0 -15 -9 -6 -9
-10 1 -17 10 -6 6 -7 -11 -3 -17 4 -21 3 -11 -3 9 -7 10 -12 2 -16 -10 -6 -15
6 -12 27 1 7 -15 11 -31 8 -8 -1 -9 0 -12 39 -2 21 2 25 25 25 21 1 25 -2 18
-11z m1497 -40 c1 -9 0 -13 -4 -10 -3 4 -7 14 -8 22 -1 9 0 13 4 10 3 -4 7
-14 8 -22z m-1439 -14 c-4 -28 -15 -35 -12 -8 3 27 3 28 10 28 3 0 4 -9 2 -20z
m2343 -90 c0 -5 -2 -10 -4 -10 -3 0 -8 5 -11 10 -3 6 -1 10 4 10 6 0 11 -4 11
-10z m-25 -40 c3 -5 1 -10 -4 -10 -6 0 -11 5 -11 10 0 6 2 10 4 10 3 0 8 -4
11 -10z m61 -2 c3 -4 -1 -5 -10 -4 -8 1 -18 5 -22 8 -3 4 1 5 10 4 8 -1 18 -5
22 -8z m-1260 -10 c4 -6 3 -8 -3 -5 -6 4 -17 -1 -24 -10 -12 -14 -11 -15 8 -9
12 4 24 2 28 -4 3 -5 1 -10 -4 -10 -17 0 -8 -24 12 -32 10 -4 15 -12 12 -18
-3 -5 -1 -10 5 -10 7 0 10 -7 6 -15 -3 -9 3 -19 15 -25 20 -11 17 -31 -4 -29
-8 0 -8 2 1 6 10 4 8 9 -7 20 -12 8 -19 18 -16 23 3 5 1 11 -5 15 -6 4 -8 10
-5 15 3 4 -4 10 -15 13 -11 3 -19 10 -18 15 2 6 -5 17 -16 24 -17 13 -17 15
-1 31 20 20 22 20 31 5z m1295 -15 c13 -16 12 -17 -3 -4 -17 13 -22 21 -14 21
2 0 10 -8 17 -17z m40 -6 c-10 -9 -11 -8 -5 6 3 10 9 15 12 12 3 -3 0 -11 -7
-18z m-196 -15 c-3 -3 -11 0 -18 7 -9 10 -8 11 6 5 10 -3 15 -9 12 -12z m105
14 c0 -3 -4 -8 -10 -11 -5 -3 -10 -1 -10 4 0 6 5 11 10 11 6 0 10 -2 10 -4z
m136 -31 c-1 -8 -5 -17 -8 -21 -5 -4 -4 16 1 34 3 9 9 -1 7 -13z m-231 -15 c3
-6 -1 -7 -9 -4 -18 7 -21 14 -7 14 6 0 13 -4 16 -10z m50 -19 c-9 -8 -36 -10
-30 -2 2 4 11 8 20 8 8 0 13 -3 10 -6z m-35 -41 c0 -5 -4 -10 -10 -10 -5 0
-10 5 -10 10 0 6 5 10 10 10 6 0 10 -4 10 -10z m-21 -44 c-3 -3 -11 5 -18 17
-13 21 -12 21 5 5 10 -10 16 -20 13 -22z m238 17 c0 -9 -4 -10 -14 -2 -7 6
-13 12 -13 14 0 1 6 2 13 2 8 0 14 -6 14 -14z m-281 -43 c1 -22 -2 -40 -5 -40
-3 0 -7 18 -7 40 -1 22 2 40 5 40 3 0 7 -18 7 -40z m211 29 c-9 -6 -15 -14
-12 -20 4 -5 1 -9 -4 -9 -6 0 -11 4 -11 8 0 12 22 32 35 32 5 0 2 -5 -8 -11z
m44 -6 c13 -16 12 -17 -3 -4 -17 13 -22 21 -14 21 2 0 10 -8 17 -17z m-1255
-42 c2 -7 -6 -4 -17 8 -11 12 -17 26 -13 32 7 12 26 -13 30 -40z m929 30 c-9
-8 -36 -10 -30 -2 2 4 11 8 20 8 8 0 13 -3 10 -6z m192 -28 c0 -9 -4 -10 -12
-3 -7 5 -15 7 -18 3 -4 -3 -7 -1 -7 5 0 6 8 10 18 9 10 0 19 -7 19 -14z m156
-1 c14 -15 15 -19 2 -19 -8 0 -11 5 -8 10 4 6 0 8 -10 4 -11 -4 -14 -2 -10 9
7 18 7 18 26 -4z m-1313 -2 c0 -5 -5 -10 -11 -10 -5 0 -7 5 -4 10 3 6 8 10 11
10 2 0 4 -4 4 -10z m963 -4 c4 -10 1 -13 -8 -9 -8 3 -12 9 -9 14 7 12 11 11
17 -5z m-38 -6 c-3 -5 -12 -10 -18 -10 -7 0 -6 4 3 10 19 12 23 12 15 0z m275
-5 c0 -1 -6 -8 -14 -14 -11 -9 -16 -9 -22 0 -5 8 -3 9 6 4 10 -6 12 -4 7 8 -4
11 -2 14 9 10 7 -3 14 -6 14 -8z m-83 -1 c-3 -3 -12 -4 -19 -1 -8 3 -5 6 6 6
11 1 17 -2 13 -5z m-2091 -21 c4 -10 8 -22 9 -28 0 -5 7 -21 14 -35 l12 -25
-18 23 c-15 18 -21 20 -31 10 -8 -8 -12 -8 -12 -1 0 6 7 14 16 17 15 6 15 8 0
31 -9 14 -12 25 -7 25 5 0 12 -8 17 -17z m1005 0 c13 -16 12 -17 -3 -4 -10 7
-18 15 -18 17 0 8 8 3 21 -13z m983 1 c3 -8 0 -16 -6 -20 -7 -5 -8 -2 -3 6 5
9 1 11 -16 6 -13 -3 -18 -3 -11 0 6 3 10 9 8 13 -3 4 1 8 9 8 8 0 16 -6 19
-13z m271 7 c-9 -8 -36 -10 -30 -2 2 4 11 8 20 8 8 0 13 -3 10 -6z m-210 -10
c3 -5 2 -12 -3 -15 -5 -3 -9 1 -9 9 0 17 3 19 12 6z m60 0 c3 -5 0 -13 -6 -17
-8 -5 -9 -3 -4 6 6 9 1 10 -16 5 -19 -5 -21 -4 -9 4 19 13 27 14 35 2z m103
-16 c-3 -3 -9 2 -12 12 -6 14 -5 15 5 6 7 -7 10 -15 7 -18z m-2408 11 c0 -3
-4 -8 -10 -11 -5 -3 -10 -1 -10 4 0 6 5 11 10 11 6 0 10 -2 10 -4z m2130 -2
c0 -8 -19 -13 -24 -6 -3 5 1 9 9 9 8 0 15 -2 15 -3z m243 -11 c-5 -12 -3 -14
8 -8 11 6 12 5 2 -5 -7 -8 -16 -11 -19 -7 -7 6 2 37 10 37 3 0 2 -7 -1 -17z
m94 10 c-4 -3 1 -12 11 -20 16 -12 16 -13 -1 -7 -12 4 -17 2 -15 -7 2 -9 -5
-14 -19 -13 -15 0 -21 -5 -20 -18 1 -12 7 -16 18 -13 22 7 31 -6 17 -25 -8
-12 -9 -12 -4 2 4 13 0 17 -17 15 -17 -2 -21 3 -22 23 0 20 4 24 22 22 16 -2
21 2 18 15 -3 19 2 33 12 33 4 0 3 -3 0 -7z m-2497 -18 c0 -8 -4 -15 -10 -15
-5 0 -7 7 -4 15 4 8 8 15 10 15 2 0 4 -7 4 -15z m37 -6 c-15 -9 -16 -13 -6
-25 8 -10 9 -18 2 -25 -7 -7 -14 -5 -23 6 -11 13 -10 19 5 35 10 11 23 20 29
20 6 0 3 -5 -7 -11z m243 1 c-8 -5 -19 -10 -25 -10 -5 0 -3 5 5 10 8 5 20 10
25 10 6 0 3 -5 -5 -10z m969 -4 c9 -11 9 -16 -1 -22 -7 -4 -10 -4 -6 1 4 4 3
14 -3 22 -6 7 -9 13 -6 13 2 0 10 -6 16 -14z m926 4 c-3 -5 -11 -10 -16 -10
-6 0 -7 5 -4 10 3 6 11 10 16 10 6 0 7 -4 4 -10z m55 0 c0 -5 -5 -10 -11 -10
-5 0 -7 5 -4 10 3 6 8 10 11 10 2 0 4 -4 4 -10z m85 0 c3 -5 1 -10 -4 -10 -6
0 -11 5 -11 10 0 6 2 10 4 10 3 0 8 -4 11 -10z m45 -5 c0 -8 -2 -15 -4 -15 -2
0 -6 7 -10 15 -3 8 -1 15 4 15 6 0 10 -7 10 -15z m-2384 -34 c-9 -14 -36 -15
-36 -1 0 5 7 7 15 4 11 -5 14 -2 9 12 -6 15 -4 16 6 7 7 -6 9 -16 6 -22z m94
19 c13 -8 13 -10 -2 -10 -9 0 -20 5 -23 10 -8 13 5 13 25 0z m55 -7 c3 -10 6
-20 5 -22 -1 -2 4 -8 12 -13 10 -8 10 -9 -2 -5 -8 2 -14 9 -13 15 1 5 -5 16
-14 24 -14 11 -16 11 -10 -4 7 -20 -15 -41 -35 -33 -9 4 -14 -1 -14 -15 0 -11
6 -20 13 -20 16 0 17 -16 1 -26 -6 -4 -8 -3 -5 3 4 6 1 13 -6 16 -8 3 -13 16
-12 29 2 18 7 22 25 20 13 -1 21 1 17 4 -8 8 10 44 22 44 5 0 12 -8 16 -17z
m2075 7 c0 -5 -4 -10 -10 -10 -5 0 -10 5 -10 10 0 6 5 10 10 10 6 0 10 -4 10
-10z m135 0 c-3 -5 -1 -10 6 -10 7 0 10 -3 6 -6 -9 -9 -28 6 -22 17 4 5 8 9
11 9 3 0 2 -4 -1 -10z m181 -20 c0 -12 -4 -16 -9 -11 -5 5 -6 14 -3 20 10 15
12 14 12 -9z m-2314 -8 c-7 -2 -10 -8 -7 -13 4 -5 -1 -6 -10 -3 -10 4 -15 2
-13 -6 2 -7 -3 -14 -10 -15 -7 -2 -8 -1 -2 2 5 2 8 9 4 14 -3 5 2 12 10 15 9
3 13 10 10 15 -3 5 3 6 12 2 11 -4 13 -8 6 -11z m38 -17 c0 -5 -5 -3 -10 5 -5
8 -10 20 -10 25 0 6 5 3 10 -5 5 -8 10 -19 10 -25z m2018 31 c-2 -1 -10 -7
-19 -14 -13 -10 -18 -10 -22 0 -3 8 5 14 20 14 13 1 23 1 21 0z m142 -17 c0
-6 -4 -7 -10 -4 -5 3 -10 11 -10 16 0 6 5 7 10 4 6 -3 10 -11 10 -16z m27 -1
c-3 -8 -6 -5 -6 6 -1 11 2 17 5 13 3 -3 4 -12 1 -19z m-252 3 c3 -5 2 -12 -3
-15 -5 -3 -9 1 -9 9 0 17 3 19 12 6z m-2241 -31 c0 -13 -6 -25 -14 -28 -9 -2
-11 0 -5 5 6 4 10 15 10 23 0 8 -4 19 -10 23 -6 5 -4 7 5 5 8 -3 14 -15 14
-28z m66 20 c0 -5 -4 -10 -10 -10 -5 0 -10 5 -10 10 0 6 5 10 10 10 6 0 10 -4
10 -10z m1256 -16 c1 -9 0 -13 -4 -10 -3 4 -7 14 -8 22 -1 9 0 13 4 10 3 -4 7
-14 8 -22z m1044 6 c5 -8 6 -18 3 -23 -3 -4 3 -7 13 -5 12 2 19 -4 21 -17 2
-15 1 -16 -5 -5 -8 17 -45 24 -39 6 3 -6 10 -10 16 -8 6 1 11 -2 11 -8 0 -12
-11 -13 -30 0 -12 7 -13 13 -3 28 6 10 8 23 5 28 -10 13 -45 18 -37 5 3 -6 -1
-14 -9 -17 -9 -3 -14 -9 -12 -13 3 -4 -5 -8 -17 -8 -21 -2 -22 -1 -3 13 11 8
23 14 28 14 4 0 7 3 7 8 -3 17 2 22 22 19 11 -2 24 -10 29 -17z m68 7 c-2 -5
8 -14 21 -21 20 -11 21 -14 7 -19 -10 -4 -15 -3 -12 2 3 5 -1 12 -10 15 -8 3
-13 10 -9 15 3 6 -4 9 -15 8 -11 -1 -20 -6 -20 -11 0 -5 -3 -7 -6 -3 -3 3 -3
10 0 15 7 11 47 10 44 -1z m-2392 -18 c3 -6 2 -15 -4 -21 -6 -6 -12 -6 -17 3
-5 8 -4 10 3 5 7 -4 12 -3 12 3 0 5 -6 12 -12 14 -10 4 -10 6 -1 6 6 1 15 -4
19 -10z m54 1 c0 -5 -4 -10 -10 -10 -5 0 -10 5 -10 10 0 6 5 10 10 10 6 0 10
-4 10 -10z m98 2 c8 -6 2 -9 -18 -9 -20 0 -26 3 -18 9 7 4 15 8 18 8 3 0 11
-4 18 -8z m2082 -2 c-18 -12 -30 -13 -30 -2 0 4 10 9 22 9 18 2 20 0 8 -7z
m230 -2 c0 -11 -12 -10 -30 2 -12 7 -10 9 8 7 12 0 22 -5 22 -9z m78 -2 c-7
-8 -15 -12 -17 -11 -5 6 10 25 20 25 5 0 4 -6 -3 -14z m-2325 -11 c-3 -9 -8
-14 -10 -11 -3 3 -2 9 2 15 9 16 15 13 8 -4z m2074 -9 c-6 -13 -20 -29 -30
-36 -15 -9 -17 -9 -11 1 5 9 2 10 -10 6 -11 -4 -15 -3 -11 4 4 6 13 8 20 5 8
-3 21 6 29 20 21 31 27 31 13 0z m77 -51 c-38 -39 -43 -51 -15 -35 21 11 71
-5 71 -22 0 -5 -8 -5 -17 -1 -10 5 -25 8 -33 7 -8 -1 -21 -2 -27 -3 -7 0 -13
-5 -13 -10 0 -4 16 -7 35 -5 33 2 65 -15 65 -36 0 -11 33 -7 42 5 8 11 1 25
-13 25 -6 0 -7 -4 -4 -10 3 -5 2 -10 -3 -10 -14 0 -22 25 -16 53 4 25 -20 56
-33 43 -4 -4 -1 -11 7 -16 8 -5 12 -11 10 -14 -3 -2 -13 2 -23 9 -17 12 -17
14 8 39 21 21 25 22 21 8 -4 -12 1 -25 14 -37 19 -18 20 -18 20 4 0 12 -4 19
-10 16 -5 -3 -10 -1 -10 4 0 20 21 11 29 -11 6 -17 4 -26 -8 -33 -9 -5 -17
-19 -19 -30 -2 -19 -1 -18 17 3 14 16 27 22 39 18 16 -5 19 -2 17 19 -2 14 1
23 5 20 5 -3 6 -13 3 -23 -6 -15 -5 -16 13 -2 18 14 18 13 -1 -9 -18 -22 -18
-24 -2 -18 11 4 16 3 12 -4 -4 -5 -15 -7 -24 -4 -11 3 -24 -2 -32 -11 -12 -15
-11 -16 10 -9 20 6 22 4 17 -13 -4 -11 0 -24 9 -32 18 -15 20 1 3 18 -9 9 -9
12 1 12 7 0 9 5 6 10 -3 6 -2 10 4 10 10 0 8 -54 -5 -84 -5 -14 -4 -17 5 -11
10 6 11 3 2 -12 -7 -15 -7 -23 2 -32 9 -10 8 -11 -8 -6 -17 6 -18 5 -5 -7 11
-9 15 -33 15 -90 0 -42 -3 -79 -7 -83 -4 -4 -4 -14 -1 -23 4 -9 2 -13 -4 -9
-13 8 -43 -29 -32 -40 5 -5 1 -9 -11 -10 -13 -1 -17 3 -13 13 3 8 0 14 -6 14
-6 0 -10 10 -8 23 1 17 -5 24 -30 31 -18 6 -31 16 -32 25 0 24 -6 50 -14 57
-7 7 -11 -12 -7 -31 5 -26 7 -55 2 -50 -3 2 -10 -2 -16 -11 -13 -16 -42 -10
-43 9 0 7 -4 21 -7 32 -5 15 -4 15 5 -2 7 -13 16 -23 21 -23 5 0 6 -4 3 -10
-3 -5 -1 -10 4 -10 6 0 11 2 11 4 0 2 3 12 6 20 5 12 2 15 -12 10 -18 -5 -18
-5 -1 6 26 17 22 33 -5 20 -22 -11 -22 -10 1 10 21 18 23 23 10 32 -11 8 -10
9 4 4 12 -4 17 -2 14 6 -2 7 -11 12 -18 10 -9 -1 -8 3 3 11 10 8 15 17 11 20
-3 4 -13 1 -21 -6 -11 -8 -14 -8 -9 0 4 6 2 13 -4 15 -7 2 -13 17 -14 33 -4
47 -9 59 -30 72 -11 7 -14 12 -7 13 6 0 12 5 12 11 0 5 -6 7 -12 3 -10 -5 -10
-4 -1 6 10 11 9 18 -5 34 -9 11 -11 16 -4 12 19 -11 14 8 -8 34 -25 28 -25 27
1 40 16 9 26 8 44 -4 24 -16 44 -22 32 -10 -3 4 4 15 16 25 19 16 20 20 9 41
l-13 23 20 -23 20 -23 -35 -34z m-2353 42 c-10 -9 -11 -8 -5 6 3 10 9 15 12
12 3 -3 0 -11 -7 -18z m235 11 c5 -7 3 -8 -6 -3 -10 6 -12 4 -7 -8 3 -9 2 -19
-2 -21 -6 -4 -8 30 -2 42 3 5 10 1 17 -10z m2268 -13 c16 -14 27 -27 24 -30
-3 -3 -16 5 -29 19 -13 13 -29 21 -38 18 -9 -3 -12 -1 -7 6 10 17 17 15 50
-13z m-2374 0 c0 -8 -4 -15 -8 -15 -5 0 -9 7 -9 15 0 8 4 15 9 15 4 0 8 -7 8
-15z m50 -1 c0 -2 -7 -4 -15 -4 -8 0 -15 4 -15 10 0 5 7 7 15 4 8 -4 15 -8 15
-10z m-190 -19 c0 -2 -5 -7 -12 -11 -7 -5 -8 -3 -3 6 5 9 1 11 -16 6 -13 -3
-18 -3 -11 0 6 3 9 10 6 16 -4 6 2 5 15 -1 11 -7 21 -14 21 -16z m64 17 c2 -4
-5 -9 -17 -9 -17 -2 -19 0 -7 7 18 12 18 12 24 2z m1126 4 c0 -2 -8 -10 -17
-17 -16 -13 -17 -12 -4 4 13 16 21 21 21 13z m-987 -27 c-8 -8 -13 -7 -18 2
-5 8 -4 10 3 5 7 -4 12 -2 12 5 0 7 3 9 7 6 4 -4 2 -12 -4 -18z m1018 4 c13
-16 12 -17 -3 -4 -10 7 -18 15 -18 17 0 8 8 3 21 -13z m-1204 -12 c0 -11 -5
-17 -9 -15 -4 3 -8 0 -8 -7 0 -7 -3 -10 -6 -7 -4 5 16 48 23 48 1 0 1 -9 0
-19z m98 -2 c-4 -5 -12 -9 -18 -8 -9 0 -8 2 1 6 6 2 9 10 6 15 -4 7 -2 8 5 4
6 -4 9 -12 6 -17z m35 1 c-6 -11 -15 -20 -20 -20 -6 0 -2 9 7 20 10 11 19 20
21 20 1 0 -2 -9 -8 -20z m994 12 c3 -5 -1 -9 -9 -9 -8 0 -12 4 -9 9 3 4 7 8 9
8 2 0 6 -4 9 -8z m1011 -2 c3 -5 1 -10 -4 -10 -6 0 -11 5 -11 10 0 6 2 10 4
10 3 0 8 -4 11 -10z m-2080 -29 c-6 -5 -25 10 -25 20 0 5 6 4 14 -3 8 -7 12
-15 11 -17z m2425 9 c0 -11 -2 -20 -4 -20 -2 0 -6 9 -9 20 -3 11 -1 20 4 20 5
0 9 -9 9 -20z m-265 0 c3 -5 1 -10 -4 -10 -6 0 -11 5 -11 10 0 6 2 10 4 10 3
0 8 -4 11 -10z m-2119 -35 c2 -12 -2 -12 -17 -5 -23 13 -25 22 -2 13 12 -5 14
-3 8 8 -5 8 -4 11 0 6 5 -4 10 -14 11 -22z m1060 0 c1 -8 -2 -15 -6 -15 -5 0
-8 9 -7 20 1 21 10 18 13 -5z m44 19 c0 -8 -19 -13 -24 -6 -3 5 1 9 9 9 8 0
15 -2 15 -3z m835 -3 c-9 -8 -36 -10 -30 -2 2 4 11 8 20 8 8 0 13 -3 10 -6z
m-1995 -26 c0 -1 -9 -5 -19 -8 -13 -3 -18 -1 -14 9 4 10 33 10 33 -1z m130 -7
c8 3 12 2 9 -2 -4 -4 -16 -8 -27 -11 -16 -3 -19 0 -15 12 5 12 3 14 -7 8 -9
-6 -11 -4 -5 5 6 10 10 10 19 -2 6 -8 18 -13 26 -10z m911 9 c-6 -8 -9 -16 -6
-19 3 -2 -2 -5 -10 -5 -13 0 -13 3 2 19 19 21 31 25 14 5z m1169 -2 c0 -2 -9
-3 -19 -2 -11 0 -18 5 -15 9 4 6 34 0 34 -7z m-1057 -10 c-3 -9 -8 -14 -10
-11 -3 3 -2 9 2 15 9 16 15 13 8 -4z m-73 -3 c0 -5 -7 -9 -15 -9 -8 0 -12 4
-9 9 3 4 9 8 15 8 5 0 9 -4 9 -8z m117 -7 c0 -8 -4 -12 -9 -9 -5 3 -6 10 -3
15 9 13 12 11 12 -6z m738 6 c-9 -8 -36 -10 -30 -2 2 4 11 8 20 8 8 0 13 -3
10 -6z m136 -28 c13 -16 12 -17 -3 -4 -17 13 -22 21 -14 21 2 0 10 -8 17 -17z
m80 -6 c-10 -9 -11 -8 -5 6 3 10 9 15 12 12 3 -3 0 -11 -7 -18z m-2150 -4 c13
-16 12 -17 -3 -5 -9 8 -23 10 -29 6 -8 -4 -9 -3 -5 4 10 17 21 15 37 -5z m31
0 c-1 -4 7 -17 16 -28 17 -20 17 -20 -4 -2 -11 9 -21 24 -21 32 0 8 2 13 5 11
2 -2 4 -8 4 -13z m-107 -3 c-3 -5 -12 -10 -18 -10 -7 0 -6 4 3 10 19 12 23 12
15 0z m153 -7 c-6 -7 -12 -13 -13 -13 -2 0 -5 6 -8 13 -3 7 3 13 14 13 13 0
15 -3 7 -13z m1126 9 c2 -4 -4 -8 -14 -8 -10 0 -16 4 -14 8 3 4 9 8 14 8 5 0
11 -4 14 -8z m926 4 c0 -2 -8 -10 -17 -17 -16 -13 -17 -12 -4 4 13 16 21 21
21 13z m-809 -23 c13 -16 12 -17 -3 -4 -10 7 -18 15 -18 17 0 8 8 3 21 -13z
m-1331 2 c0 -2 -6 -8 -13 -14 -10 -8 -14 -7 -14 2 0 8 6 14 14 14 7 0 13 -1
13 -2z m1027 -9 c0 -8 -6 -12 -15 -8 -11 4 -13 1 -7 -8 6 -9 4 -11 -5 -5 -10
6 -9 11 5 22 23 16 22 16 22 -1z m1142 11 c-2 -1 -13 -9 -24 -17 -19 -14 -19
-14 -6 3 7 9 18 17 24 17 6 0 8 -1 6 -3z m-1007 -24 c-1 -4 7 -17 16 -28 9
-11 10 -15 3 -8 -11 10 -17 9 -28 -5 -13 -16 -13 -15 -5 3 5 11 8 28 6 38 -1
11 0 17 3 14 2 -3 5 -9 5 -14z m-1241 -10 c13 -16 12 -17 -3 -4 -10 7 -18 15
-18 17 0 8 8 3 21 -13z m141 -8 c2 3 5 -2 5 -10 0 -10 -4 -12 -12 -5 -7 5 -16
6 -21 2 -5 -4 -6 -3 -2 2 4 5 2 16 -4 25 -10 12 -7 12 8 -2 11 -9 23 -15 26
-12z m1019 4 c-12 -10 -21 -21 -21 -24 1 -4 -2 -10 -6 -13 -4 -4 -3 -1 1 7 6
10 4 13 -7 9 -8 -4 -15 -1 -15 7 0 8 7 11 15 7 10 -3 13 -1 8 6 -5 8 -1 10 10
5 10 -4 15 -2 11 4 -3 5 1 10 10 10 13 0 11 -4 -6 -18z m54 11 c3 -6 -1 -7 -9
-4 -18 7 -21 14 -7 14 6 0 13 -4 16 -10z m735 0 c0 -5 -5 -10 -11 -10 -5 0 -7
5 -4 10 3 6 8 10 11 10 2 0 4 -4 4 -10z m343 -1 c-6 -6 -9 -18 -6 -25 3 -9 -2
-14 -13 -14 -16 0 -17 2 -4 10 8 5 11 10 6 10 -9 0 13 30 22 30 3 0 1 -5 -5
-11z m-290 -14 c-3 -9 -8 -14 -10 -11 -3 3 -2 9 2 15 9 16 15 13 8 -4z m-2018
-13 c-3 -3 -11 0 -18 7 -9 10 -8 11 6 5 10 -3 15 -9 12 -12z m1090 8 c3 -5 1
-10 -4 -10 -6 0 -11 5 -11 10 0 6 2 10 4 10 3 0 8 -4 11 -10z m310 1 c3 -5 2
-12 -3 -15 -5 -3 -9 1 -9 9 0 17 3 19 12 6z m850 0 c-3 -2 -16 -6 -28 -8 -15
-2 -18 0 -9 5 14 9 45 12 37 3z m-1079 -43 c-9 -12 -16 -19 -16 -15 0 11 24
47 28 42 2 -2 -3 -14 -12 -27z m174 18 c-7 -7 -13 -7 -20 0 -6 6 -3 10 10 10
13 0 16 -4 10 -10z m758 -5 c-7 -9 -13 -18 -15 -20 -1 -2 -1 5 0 16 0 11 7 20
14 20 10 0 10 -4 1 -16z m-1024 -6 c3 -8 1 -15 -4 -15 -6 0 -10 7 -10 15 0 8
2 15 4 15 2 0 6 -7 10 -15z m379 0 c-3 -9 -8 -14 -10 -11 -3 3 -2 9 2 15 9 16
15 13 8 -4z m-1301 -6 c2 -2 1 -3 -1 -2 -2 2 -9 -2 -16 -7 -8 -7 -12 -5 -12 4
0 12 22 16 29 5z m1159 -6 c13 -16 12 -17 -3 -4 -10 7 -18 15 -18 17 0 8 8 3
21 -13z m59 13 c0 -2 -8 -10 -17 -17 -16 -13 -17 -12 -4 4 13 16 21 21 21 13z
m54 -4 c3 -5 -1 -9 -9 -9 -8 0 -12 4 -9 9 3 4 7 8 9 8 2 0 6 -4 9 -8z m576 2
c0 -8 -19 -13 -24 -6 -3 5 1 9 9 9 8 0 15 -2 15 -3z m174 -2 c3 -5 -1 -9 -9
-9 -8 0 -12 4 -9 9 3 4 7 8 9 8 2 0 6 -4 9 -8z m83 -14 c2 -17 0 -19 -7 -8 -5
8 -6 18 -4 22 8 12 10 10 11 -14z m93 11 c0 -3 -11 -6 -25 -6 -14 0 -25 3 -25
6 0 4 11 7 25 7 14 0 25 -3 25 -7z m-1255 -19 c-3 -5 -12 -10 -18 -10 -7 0 -6
4 3 10 19 12 23 12 15 0z m45 0 c0 -5 -7 -7 -15 -4 -8 4 -15 8 -15 10 0 2 7 4
15 4 8 0 15 -4 15 -10z m113 -6 c-3 -9 3 -12 23 -8 16 3 26 2 22 -1 -3 -4 -12
-7 -20 -9 -7 -1 -20 -6 -28 -10 -8 -5 -12 -6 -8 -1 4 4 3 15 -2 25 -6 12 -5
17 5 17 7 0 11 -6 8 -13z m811 8 c3 -5 -1 -9 -9 -9 -8 0 -15 4 -15 9 0 4 4 8
9 8 6 0 12 -4 15 -8z m-64 -6 c0 -2 -8 -10 -17 -17 -16 -13 -17 -12 -4 4 13
16 21 21 21 13z m154 -7 c-7 -12 -51 -16 -51 -5 0 6 13 11 28 11 15 0 25 -3
23 -6z m83 -11 c-3 -8 -6 -5 -6 6 -1 11 2 17 5 13 3 -3 4 -12 1 -19z m101 -7
c-7 -9 -13 -17 -14 -19 -1 -2 -1 8 0 21 0 15 6 23 14 20 10 -4 10 -9 0 -22z
m-1278 15 c0 -2 -7 -7 -16 -10 -8 -3 -12 -2 -9 4 6 10 25 14 25 6z m56 -13
c-2 -9 -8 -18 -15 -19 -6 -1 -7 0 -2 2 6 3 7 12 4 20 -3 8 -1 14 5 14 6 0 9
-8 8 -17z m40 2 c-1 -8 -6 -18 -11 -22 -4 -4 -5 -2 -1 5 4 7 2 12 -6 12 -9 0
-9 3 2 10 19 12 19 13 16 -5z m34 -5 c6 -11 8 -20 6 -20 -3 0 -10 9 -16 20 -6
11 -8 20 -6 20 3 0 10 -9 16 -20z m260 16 c0 -2 -8 -10 -17 -17 -16 -13 -17
-12 -4 4 13 16 21 21 21 13z m24 -12 c3 -8 2 -12 -4 -9 -6 3 -10 10 -10 16 0
14 7 11 14 -7z m836 1 c0 -11 -29 -11 -33 -1 -4 10 1 12 14 9 10 -3 19 -7 19
-8z m-1593 -27 c2 -17 0 -19 -7 -8 -5 8 -6 18 -4 22 8 12 10 10 11 -14z m354
7 c0 -6 11 -16 24 -22 23 -13 25 -46 4 -59 -5 -3 -4 7 1 21 8 21 7 26 -2 22
-7 -2 -12 -9 -11 -14 2 -11 -35 -15 -41 -4 -3 4 0 13 6 21 8 12 9 12 4 -2 -6
-21 7 -24 23 -4 9 11 8 15 -4 20 -9 3 -13 10 -10 16 3 5 1 10 -5 10 -7 0 -14
-9 -17 -21 -4 -15 -8 -17 -14 -8 -4 8 -1 18 9 26 19 14 34 13 33 -2z m233 0
c-4 -8 -11 -12 -16 -9 -6 4 -5 10 3 15 19 12 19 11 13 -6z m43 9 c-3 -3 -12
-4 -19 -1 -8 3 -5 6 6 6 11 1 17 -2 13 -5z m43 1 c0 -2 -6 -8 -13 -14 -10 -8
-14 -7 -14 2 0 8 6 14 14 14 7 0 13 -1 13 -2z m586 -31 c1 -9 -1 -13 -4 -9 -4
4 -7 10 -7 13 0 4 -4 14 -9 22 -7 12 -6 13 4 3 8 -7 15 -20 16 -29z m164 32
c0 -2 -7 -7 -16 -10 -8 -3 -12 -2 -9 4 6 10 25 14 25 6z m31 -23 c-12 -20 -14
-14 -5 12 4 9 9 14 11 11 3 -2 0 -13 -6 -23z m195 15 c5 -7 3 -8 -6 -3 -10 6
-12 4 -7 -9 4 -10 3 -15 -3 -11 -6 3 -10 1 -10 -6 0 -7 -3 -10 -6 -7 -5 6 13
48 21 48 2 0 7 -5 11 -12z m-2269 -13 c0 -8 -4 -12 -9 -9 -5 3 -6 10 -3 15 9
13 12 11 12 -6z m2123 -29 c0 -6 -7 -1 -15 10 -8 10 -15 23 -15 28 0 6 7 1 15
-10 8 -10 15 -23 15 -28z m-1070 18 c0 -2 -7 -4 -15 -4 -8 0 -15 4 -15 10 0 5
7 7 15 4 8 -4 15 -8 15 -10z m36 2 c3 -8 13 -12 24 -9 10 3 20 1 23 -4 10 -16
-41 -7 -58 10 -9 9 -11 17 -5 17 6 0 13 -6 16 -14z m73 -20 c-3 -3 -11 5 -18
17 -13 21 -12 21 5 5 10 -10 16 -20 13 -22z m92 17 c13 -16 12 -17 -3 -4 -17
13 -22 21 -14 21 2 0 10 -8 17 -17z m59 13 c0 -2 -8 -10 -17 -17 -16 -13 -17
-12 -4 4 13 16 21 21 21 13z m64 -7 c3 -3 -4 -5 -14 -6 -11 -1 -20 2 -20 7 0
8 25 8 34 -1z m60 3 c3 -5 -1 -9 -9 -9 -8 0 -12 4 -9 9 3 4 7 8 9 8 2 0 6 -4
9 -8z m401 -24 c-3 -12 1 -29 7 -37 10 -14 10 -14 -2 -3 -15 13 -23 75 -9 66
4 -2 6 -14 4 -26z m180 14 c-3 -3 -11 0 -18 7 -9 10 -8 11 6 5 10 -3 15 -9 12
-12z m155 8 c-8 -5 -22 -9 -30 -9 -10 0 -8 3 5 9 27 12 43 12 25 0z m108 -25
c0 -29 -9 -37 -27 -26 -11 7 -10 13 5 29 11 11 20 21 20 21 1 1 2 -10 2 -24z
m-2382 -21 c0 -13 -2 -22 -5 -19 -3 3 -6 17 -7 31 0 13 2 22 5 19 3 -3 6 -17
7 -31z m44 30 c0 -8 -19 -13 -24 -6 -3 5 1 9 9 9 8 0 15 -2 15 -3z m1139 -34
c0 -10 -3 -8 -9 5 -12 27 -12 43 0 25 5 -8 9 -22 9 -30z m853 26 c10 6 11 4 0
-7 -10 -11 -15 -10 -30 6 -15 17 -15 18 0 6 9 -7 23 -9 30 -5z m111 -3 c-4
-11 -3 -14 5 -9 8 5 10 1 5 -10 -4 -12 -3 -15 5 -10 7 4 12 5 12 2 0 -3 -4 -7
-9 -11 -12 -7 -34 32 -26 45 10 16 15 11 8 -7z m54 -15 c-4 -14 0 -22 13 -25
17 -5 17 -6 -1 -24 -22 -22 -37 -26 -19 -4 7 8 8 20 4 27 -5 7 -7 21 -5 32 2
12 -1 16 -10 11 -8 -5 -10 -4 -5 4 11 17 28 1 23 -21z m88 24 c-5 -4 -11 -16
-13 -27 -2 -19 -2 -19 11 -2 13 16 15 16 15 -8 0 -27 -10 -32 -26 -12 -9 10
-10 32 -3 55 1 1 7 2 14 2 7 0 8 -3 2 -8z m39 -8 c5 -14 4 -15 -9 -4 -17 14
-19 20 -6 20 5 0 12 -7 15 -16z m-1053 -21 c-12 -20 -14 -14 -5 12 4 9 9 14
11 11 3 -2 0 -13 -6 -23z m180 0 c19 -22 20 -24 3 -10 -17 14 -23 15 -27 5 -3
-7 -4 -3 -4 10 1 12 2 22 2 22 1 0 12 -12 26 -27z m610 4 c-10 -9 -11 -8 -5 6
3 10 9 15 12 12 3 -3 0 -11 -7 -18z m-1043 -1 c-7 -8 -15 -12 -17 -11 -5 6 10
25 20 25 5 0 4 -6 -3 -14z m136 -1 c3 -9 -1 -18 -9 -21 -8 -4 -12 -10 -9 -15
3 -5 -3 -6 -13 -2 -15 6 -14 2 5 -31 30 -51 28 -59 -4 -12 -24 35 -25 40 -11
51 9 7 14 15 10 19 -4 4 1 4 12 0 18 -7 18 -6 6 9 -7 9 -9 17 -3 17 5 0 13 -7
16 -15z m59 0 c-3 -10 0 -15 8 -13 9 2 14 -6 14 -19 0 -13 -4 -22 -8 -20 -5 1
-16 -11 -24 -26 -8 -16 -17 -27 -20 -24 -8 8 28 57 38 51 5 -3 9 4 9 16 0 12
-4 19 -9 15 -12 -7 -24 12 -16 25 10 15 15 12 8 -5z m110 -16 c-8 -8 -13 -7
-18 2 -6 8 -4 10 5 4 10 -6 12 -4 6 11 -6 15 -5 17 5 7 9 -10 10 -16 2 -24z
m49 13 c3 -11 0 -19 -7 -19 -7 0 -10 8 -7 19 2 10 6 18 7 18 1 0 5 -8 7 -18z
m22 2 c3 -8 2 -12 -4 -9 -6 3 -10 10 -10 16 0 14 7 11 14 -7z m855 9 c-5 -32
27 -70 65 -77 22 -4 27 -2 22 10 -3 9 -1 12 4 9 23 -14 9 -33 -24 -32 -26 1
-38 8 -54 32 -28 41 -37 65 -23 65 6 0 10 -3 10 -7z m-2154 -23 c3 -5 1 -10
-4 -10 -6 0 -11 5 -11 10 0 6 2 10 4 10 3 0 8 -4 11 -10z m930 -10 c-22 -25
-9 -26 18 -2 11 9 17 11 13 5 -4 -7 -3 -13 3 -13 5 0 12 5 14 10 3 6 4 5 3 -2
-2 -7 -9 -13 -17 -13 -8 0 -20 -4 -26 -8 -7 -5 -17 -5 -23 -2 -5 3 -10 1 -10
-4 0 -6 -5 -11 -11 -11 -8 0 -8 4 0 14 10 11 8 17 -6 25 -10 6 -13 11 -7 11 5
0 15 -5 22 -12 9 -9 13 -7 18 5 3 9 11 17 17 17 5 0 2 -9 -8 -20z m269 4 c3
-8 2 -12 -4 -9 -6 3 -10 10 -10 16 0 14 7 11 14 -7z m246 12 c0 -2 -7 -7 -16
-10 -8 -3 -12 -2 -9 4 6 10 25 14 25 6z m480 -4 c0 -12 -22 -32 -34 -32 -6 0
-3 5 7 11 9 6 15 14 12 20 -4 5 -1 9 4 9 6 0 11 -4 11 -8z m55 -2 c-3 -5 -12
-10 -18 -10 -7 0 -6 4 3 10 19 12 23 12 15 0z m11 -18 c-17 -16 -18 -16 -5 5
7 12 15 20 18 17 3 -2 -3 -12 -13 -22z m249 17 c11 -16 1 -19 -13 -3 -7 8 -8
14 -3 14 5 0 13 -5 16 -11z m-511 -30 c-9 -10 -14 -19 -10 -19 3 0 -1 -11 -10
-25 -15 -23 -15 -25 0 -31 9 -3 13 -10 10 -16 -3 -5 0 -9 7 -7 31 4 60 -2 54
-10 -3 -5 4 -11 16 -13 14 -2 23 -11 25 -25 4 -27 -7 -35 -26 -21 -12 8 -12 9
2 5 12 -4 16 0 15 13 -1 13 -12 21 -34 25 -18 3 -33 11 -33 17 0 7 -5 6 -15
-2 -12 -10 -15 -10 -15 1 0 11 -3 11 -11 -1 -8 -12 -9 -9 -4 9 6 20 4 23 -10
17 -10 -3 -23 -2 -30 4 -8 7 -12 5 -12 -5 0 -8 3 -12 7 -10 4 3 6 -6 5 -20 -2
-18 1 -22 13 -18 13 5 12 0 -5 -18 -19 -21 -20 -27 -8 -49 l14 -25 9 24 c7 21
10 22 15 7 4 -10 12 -14 18 -10 8 4 9 -1 4 -17 -5 -19 -4 -21 4 -9 6 8 11 11
12 5 2 -13 5 -29 8 -35 8 -17 6 -50 -3 -47 -6 2 -11 15 -11 28 0 17 -5 24 -18
23 -13 -1 -16 3 -12 16 3 10 1 21 -4 25 -7 4 -8 -1 -5 -12 4 -13 3 -15 -4 -5
-11 16 -23 14 -37 -5 -9 -11 -15 -8 -34 18 -39 52 -27 98 17 66 16 -12 27 -2
16 15 -5 7 -9 22 -9 33 0 11 -4 26 -9 34 -6 9 -5 12 2 7 5 -3 25 13 43 36 39
50 50 59 62 51 4 -3 1 -14 -9 -24z m116 4 c0 -3 -3 -3 -7 0 -3 4 -11 3 -17 -3
-8 -6 -12 -3 -12 10 0 15 4 16 18 9 10 -5 18 -13 18 -16z m-776 -7 c-3 -9 -10
-16 -15 -16 -5 0 -4 9 3 20 14 22 21 20 12 -4z m36 14 c0 -5 -4 -10 -10 -10
-5 0 -10 5 -10 10 0 6 5 10 10 10 6 0 10 -4 10 -10z m93 -14 c21 4 21 4 2 -5
-25 -11 -35 -5 -34 17 1 15 2 15 6 1 3 -11 12 -15 26 -13z m47 14 c0 -5 -5
-10 -11 -10 -5 0 -7 5 -4 10 3 6 8 10 11 10 2 0 4 -4 4 -10z m112 -1 c2 -2 1
-3 -1 -2 -2 2 -9 -2 -16 -7 -8 -7 -12 -5 -12 4 0 12 22 16 29 5z m108 5 c0 -8
-19 -13 -24 -6 -3 5 1 9 9 9 8 0 15 -2 15 -3z m566 -9 c-8 -9 -19 -15 -23 -15
-4 1 -11 -9 -15 -22 -7 -22 -7 -22 -5 2 1 14 6 23 10 20 5 -3 13 3 18 13 6 9
15 17 20 17 6 0 4 -7 -5 -15z m54 5 c0 -5 -8 -10 -17 -10 -15 0 -16 2 -3 10
19 12 20 12 20 0z m140 -5 c0 -8 -4 -15 -10 -15 -5 0 -7 7 -4 15 4 8 8 15 10
15 2 0 4 -7 4 -15z m-275 -23 c-3 -3 -11 0 -18 7 -9 10 -8 11 6 5 10 -3 15 -9
12 -12z m91 -12 c-1 -17 -5 -30 -9 -30 -4 0 -11 0 -17 0 -5 0 -10 5 -10 11 0
8 6 7 17 -2 15 -12 16 -12 10 4 -5 15 0 47 8 47 1 0 2 -14 1 -30z m88 5 c-9
-14 -19 -24 -21 -21 -6 6 20 46 30 46 4 0 0 -11 -9 -25z m-1164 11 c0 -3 -4
-8 -10 -11 -5 -3 -10 -1 -10 4 0 6 5 11 10 11 6 0 10 -2 10 -4z m115 -15 c-3
-6 -11 -11 -16 -11 -5 0 -4 6 3 14 14 16 24 13 13 -3z m195 11 c0 -5 -7 -17
-15 -28 -14 -18 -14 -17 -4 9 12 27 19 34 19 19z m100 -7 c-7 -8 -17 -15 -23
-15 -6 0 -2 7 9 15 25 19 30 19 14 0z m83 0 c-3 -9 -8 -14 -10 -11 -3 3 -2 9
2 15 9 16 15 13 8 -4z m42 6 c3 -5 2 -12 -3 -15 -5 -3 -9 1 -9 9 0 17 3 19 12
6z m420 -2 c11 -16 1 -19 -13 -3 -7 8 -8 14 -3 14 5 0 13 -5 16 -11z m-910 -9
c3 -5 1 -10 -4 -10 -6 0 -11 5 -11 10 0 6 2 10 4 10 3 0 8 -4 11 -10z m150 0
c-3 -5 -11 -10 -16 -10 -6 0 -7 5 -4 10 3 6 11 10 16 10 6 0 7 -4 4 -10z m58
-7 c-6 -16 -5 -17 13 -3 18 14 18 14 5 -2 -7 -10 -17 -15 -22 -12 -12 7 -11
34 1 34 5 0 6 -8 3 -17z m534 2 c0 -8 -4 -12 -9 -9 -5 3 -6 10 -3 15 9 13 12
11 12 -6z m72 -8 c0 -9 -2 -8 -6 1 -2 6 -10 9 -15 6 -7 -4 -8 -2 -4 5 9 13 26
5 25 -12z m251 13 c0 -5 -4 -10 -10 -10 -5 0 -10 5 -10 10 0 6 5 10 10 10 6 0
10 -4 10 -10z m-203 -7 c-9 -2 -14 -9 -11 -15 4 -7 2 -8 -5 -4 -15 10 -4 26
17 25 15 -1 15 -2 -1 -6z m93 -3 c0 -5 -6 -10 -13 -10 -7 0 -13 -9 -14 -20 -1
-11 4 -19 10 -17 7 1 12 -4 12 -12 0 -8 -6 -15 -13 -17 -7 -1 -8 0 -2 3 14 7
13 24 -2 21 -18 -4 -18 41 1 52 20 12 21 12 21 0z m-830 -24 c10 -13 10 -17 3
-12 -8 4 -13 2 -13 -6 0 -10 -2 -10 -9 1 -5 8 -7 20 -4 28 3 8 6 13 7 11 1 -2
8 -12 16 -22z m46 -9 c-2 -15 -11 -23 -27 -24 -21 -2 -21 -1 -4 5 26 9 34 44
8 36 -15 -5 -15 -4 -3 4 19 14 30 6 26 -21z m733 10 c0 -9 -2 -8 -6 1 -2 6
-10 9 -15 6 -7 -4 -8 -2 -4 5 9 13 26 5 25 -12z m-626 -8 c-8 -8 -13 -7 -18 2
-5 8 -4 10 3 5 7 -4 12 -2 12 5 0 7 3 9 7 6 4 -4 2 -12 -4 -18z m125 12 c15
12 15 11 -1 -8 -14 -16 -15 -22 -5 -26 7 -3 3 -4 -8 -4 -15 1 -20 6 -16 16 3
8 1 12 -5 8 -5 -3 -10 0 -10 8 0 11 4 12 14 4 10 -9 18 -8 31 2z m53 -8 c13
-16 12 -17 -3 -4 -17 13 -22 21 -14 21 2 0 10 -8 17 -17z m635 6 c3 -6 0 -15
-7 -20 -23 -15 -34 -10 -13 6 11 8 14 14 6 15 -7 0 -20 -9 -29 -19 -9 -11 -20
-18 -25 -15 -4 3 -8 0 -8 -5 0 -6 6 -11 13 -11 8 0 7 -4 -3 -10 -18 -12 -40
-14 -25 -2 6 4 10 13 10 20 0 6 3 12 8 12 4 0 16 9 27 20 23 23 36 25 46 9z
m-899 -21 c-3 -8 -6 -5 -6 6 -1 11 2 17 5 13 3 -3 4 -12 1 -19z m126 5 c-5
-12 -3 -14 7 -8 9 6 11 4 5 -4 -5 -9 -11 -9 -17 -3 -6 6 -7 15 -4 21 11 17 16
13 9 -6z m517 11 c0 -8 -19 -13 -24 -6 -3 5 1 9 9 9 8 0 15 -2 15 -3z m140 -4
c0 -5 -4 -10 -10 -10 -5 0 -10 5 -10 10 0 6 5 10 10 10 6 0 10 -4 10 -10z
m-884 -17 c11 -10 20 -29 21 -43 1 -14 -1 -19 -4 -12 -3 6 -8 10 -12 8 -4 -3
-13 5 -20 17 -11 18 -11 20 0 10 21 -21 34 -15 14 7 -10 11 -22 17 -26 14 -5
-3 -9 0 -9 5 0 16 14 13 36 -6z m145 -3 c6 0 7 5 3 12 -5 7 -3 8 5 3 9 -5 9
-11 3 -17 -12 -12 -32 -2 -31 15 0 9 2 9 6 0 2 -7 9 -13 14 -13z m198 7 c8
-10 7 -14 -2 -14 -8 0 -14 6 -14 14 0 7 1 13 2 13 2 0 8 -6 14 -13z m416 3
c-3 -5 -1 -10 6 -10 7 0 10 -3 6 -6 -9 -9 -28 6 -22 17 4 5 8 9 11 9 3 0 2 -4
-1 -10z m-567 -14 c-10 -7 -15 -16 -11 -19 3 -4 -2 -9 -11 -13 -14 -5 -14 -9
-4 -23 12 -14 11 -15 -5 -2 -18 14 -18 16 -1 28 10 7 14 13 8 13 -5 0 0 7 10
15 11 8 22 15 25 15 3 0 -2 -7 -11 -14z m562 -15 c12 -8 10 -10 -7 -8 -12 0
-20 3 -18 6 3 2 -3 10 -13 18 -16 13 -15 13 3 4 11 -6 27 -15 35 -20z m64 7
c4 -26 27 -58 41 -58 8 0 15 -4 15 -10 0 -18 -48 12 -55 34 -11 35 -16 60 -9
54 3 -3 7 -12 8 -20z m-560 1 c-3 -6 0 -15 7 -20 9 -6 10 -9 2 -9 -15 0 -26
17 -18 30 3 6 8 10 11 10 3 0 2 -5 -2 -11z m332 -8 c0 -11 -5 -17 -13 -14 -17
6 -17 20 0 26 6 3 12 6 12 6 1 1 1 -7 1 -18z m306 12 c-6 -2 -10 -8 -7 -13 2
-4 -4 -15 -14 -24 -14 -13 -21 -14 -27 -5 -4 7 -3 10 2 7 5 -3 15 0 22 8 7 8
10 14 7 14 -3 0 -3 5 0 10 3 6 12 10 18 9 9 0 8 -2 -1 -6z m-774 -15 c-6 -17
-37 -23 -50 -10 -6 6 0 8 18 4 19 -3 25 -1 20 7 -4 6 -2 11 4 11 7 0 10 -6 8
-12z m262 8 c0 -3 -4 -8 -10 -11 -5 -3 -10 -1 -10 4 0 6 5 11 10 11 6 0 10 -2
10 -4z m-325 -36 c0 -7 -6 -15 -12 -17 -7 -3 -13 0 -13 7 0 6 5 8 10 5 6 -3
10 -2 10 4 0 5 -5 12 -10 14 -6 3 -5 4 2 3 7 -2 13 -9 13 -16z m182 5 c5 -4 3
-5 -4 -2 -6 4 -13 3 -15 -2 -1 -5 -9 -3 -16 5 -11 12 -9 13 7 11 11 -2 24 -7
28 -12z m70 9 c-3 -3 -12 -4 -19 -1 -8 3 -5 6 6 6 11 1 17 -2 13 -5z m108 -3
c3 -5 2 -12 -3 -15 -5 -3 -9 1 -9 9 0 17 3 19 12 6z m248 -7 c16 -9 16 -12 2
-29 -15 -19 -16 -19 -10 5 5 19 4 22 -4 10 -6 -8 -11 -11 -11 -6 0 5 -6 3 -14
-3 -9 -8 -16 -8 -20 -2 -4 5 3 13 15 16 11 4 18 9 16 12 -3 2 -15 -1 -27 -7
-18 -10 -19 -14 -8 -28 11 -14 11 -15 -5 -9 -11 4 -20 1 -24 -9 -5 -13 -7 -13
-14 -2 -6 9 1 22 19 39 27 26 54 30 85 13z m-489 -47 c4 4 4 -1 0 -10 -4 -12
-2 -17 6 -15 22 5 22 -20 0 -32 -12 -6 -24 -9 -27 -7 -2 3 5 8 16 12 12 3 21
11 21 16 0 6 -5 7 -10 4 -6 -3 -13 1 -16 9 -3 9 -10 13 -15 10 -5 -3 -6 3 -2
12 5 13 3 15 -7 9 -8 -5 -11 -4 -6 3 3 6 2 13 -4 17 -5 3 -10 11 -10 18 0 6
11 -3 23 -21 13 -17 27 -29 31 -25z m563 31 c-3 -8 -6 -5 -6 6 -1 11 2 17 5
13 3 -3 4 -12 1 -19z m-657 -3 c0 -8 -4 -15 -10 -15 -5 0 -7 7 -4 15 4 8 8 15
10 15 2 0 4 -7 4 -15z m113 -2 c-5 -12 -3 -14 7 -8 9 5 11 4 6 -4 -4 -6 -12
-9 -17 -6 -12 8 -12 35 1 35 5 0 6 -7 3 -17z m67 7 c0 -5 -5 -10 -11 -10 -5 0
-7 5 -4 10 3 6 8 10 11 10 2 0 4 -4 4 -10z m76 -15 c1 -8 -2 -15 -6 -15 -5 0
-8 9 -7 20 1 21 10 18 13 -5z m1004 13 c0 -9 3 -9 12 0 15 15 28 16 28 2 0 -5
-7 -10 -15 -10 -8 0 -15 -4 -15 -10 0 -5 -6 -7 -13 -4 -15 5 -19 34 -5 34 4 0
8 -5 8 -12z m-945 -8 c3 -6 -1 -7 -9 -4 -18 7 -21 14 -7 14 6 0 13 -4 16 -10z
m-284 -27 c-8 -15 -10 -15 -11 -2 0 17 10 32 18 25 2 -3 -1 -13 -7 -23z m118
1 c-6 -8 -17 -14 -23 -14 -6 0 -3 7 6 14 10 7 14 17 10 21 -4 5 -1 5 6 1 10
-6 10 -11 1 -22z m41 7 c-13 -26 -13 -34 2 -25 6 4 8 3 4 -4 -3 -6 -15 -9 -26
-7 -14 3 -20 -2 -20 -16 0 -10 6 -18 13 -16 7 1 11 -7 10 -20 -2 -13 2 -22 9
-20 7 1 13 -7 15 -18 3 -18 2 -18 -5 -2 -4 10 -12 18 -17 18 -6 0 -9 9 -8 20
2 11 -3 18 -10 16 -7 -1 -12 8 -12 21 0 12 5 22 10 23 6 0 16 11 23 25 7 13
15 24 18 24 2 0 0 -9 -6 -19z m400 -4 c16 4 19 2 14 -11 -3 -9 -10 -16 -16
-16 -5 0 -6 4 -3 10 3 6 -1 7 -9 4 -10 -4 -16 -1 -16 7 0 7 -3 9 -7 5 -4 -4 3
-16 17 -26 20 -16 21 -20 8 -20 -10 0 -22 9 -28 20 -6 12 -16 18 -23 14 -7 -4
-3 3 7 15 16 18 21 19 28 7 5 -8 16 -12 28 -9z m-580 -9 c0 -11 -12 -10 -30 2
-12 7 -10 9 8 7 12 0 22 -5 22 -9z m213 -5 c-3 -7 -6 -13 -8 -13 -2 0 -5 6 -8
13 -3 8 1 14 8 14 7 0 11 -6 8 -14z m-160 -36 c-8 -5 -22 -2 -35 7 -12 9 -17
16 -11 16 7 0 15 -4 18 -10 3 -5 11 -10 18 -10 8 0 8 3 -1 12 -7 7 -12 16 -12
20 0 4 8 0 18 -9 14 -14 15 -20 5 -26z m548 6 c-12 -20 -14 -14 -5 12 4 9 9
14 11 11 3 -2 0 -13 -6 -23z m-355 0 c-3 -3 -22 -7 -43 -9 -21 -2 -33 0 -26 4
13 8 77 13 69 5z m-116 -38 c14 -19 14 -19 -2 -6 -10 7 -18 18 -18 24 0 6 1 8
3 6 1 -2 9 -13 17 -24z m365 4 c6 -17 9 -18 16 -8 4 7 11 10 16 6 9 -9 -17
-28 -32 -24 -5 2 -10 9 -10 15 0 17 -12 24 -21 11 -5 -8 -3 -10 6 -4 8 5 11 4
7 -2 -4 -6 0 -16 8 -23 8 -7 15 -17 15 -22 0 -7 -5 -6 -13 1 -8 6 -16 8 -19 5
-3 -3 -5 3 -4 13 0 9 -5 18 -11 19 -7 1 -16 2 -20 3 -10 2 30 30 44 31 6 0 15
-10 18 -21z m-445 1 c0 -5 -4 -10 -10 -10 -5 0 -10 5 -10 10 0 6 5 10 10 10 6
0 10 -4 10 -10z m154 -5 c3 -8 1 -15 -4 -15 -6 0 -10 7 -10 15 0 8 2 15 4 15
2 0 6 -7 10 -15z m-123 -19 c5 3 7 10 4 15 -4 5 -1 9 4 9 13 0 14 -10 2 -29
-11 -17 -31 -6 -30 17 1 15 2 15 6 -1 2 -9 9 -15 14 -11z m1205 -11 c1 -8 -2
-13 -7 -9 -5 3 -9 0 -9 -5 0 -6 5 -11 11 -11 6 0 8 -9 4 -21 -5 -14 -3 -19 3
-15 8 5 10 -22 2 -31 -2 -2 -3 -11 -4 -20 -1 -10 -5 -23 -9 -30 -4 -6 -3 -14
2 -17 17 -11 5 -39 -18 -41 -13 -1 -27 -8 -32 -16 -5 -8 -9 -12 -10 -9 0 3 -2
13 -4 23 -3 14 1 16 18 11 21 -6 21 -5 3 8 -16 13 -16 15 -2 15 9 0 16 -4 16
-9 0 -4 4 -8 8 -8 5 0 9 6 9 14 0 8 -8 13 -19 11 -20 -4 -22 3 -8 25 6 10 10
11 10 3 0 -7 5 -13 11 -13 8 0 8 4 -1 14 -6 8 -19 12 -27 9 -11 -4 -14 -3 -9
6 5 7 14 10 22 7 9 -3 11 0 7 12 -4 13 -2 13 11 -3 10 -11 14 -14 10 -6 -3 7
0 18 7 23 11 8 10 9 -3 4 -10 -3 -20 -1 -23 4 -4 6 -1 10 4 10 6 0 11 5 11 11
0 8 -5 8 -15 -1 -8 -7 -12 -17 -8 -24 3 -6 -2 -3 -13 6 -13 12 -24 14 -34 8
-8 -5 -10 -10 -4 -10 6 0 11 -7 11 -15 0 -18 -9 -19 -26 -2 -11 9 -12 9 -7 0
5 -9 1 -11 -11 -7 -15 5 -16 4 -3 -5 9 -7 11 -11 3 -11 -7 0 -17 8 -23 18 -11
16 -11 16 -6 -2 6 -18 5 -18 -19 -2 -23 15 -29 14 -26 -6 0 -5 -3 -8 -9 -8 -5
0 -10 6 -10 13 -1 7 -6 5 -14 -6 -9 -12 -16 -14 -21 -8 -3 6 -1 11 5 11 6 0 8
5 4 11 -4 8 -9 7 -16 -2 -7 -11 -8 -10 -4 4 4 12 2 16 -6 11 -6 -4 -8 -3 -5 3
3 5 -4 9 -16 8 -12 -1 -28 2 -34 8 -7 5 -14 7 -14 3 -1 -3 -3 -10 -4 -16 -1
-5 -3 -14 -4 -20 0 -5 -8 -7 -16 -4 -8 3 -25 -6 -40 -20 -14 -14 -25 -22 -25
-18 0 5 5 13 10 18 7 7 5 17 -5 30 -15 19 -15 19 -8 -1 6 -18 5 -19 -12 -5
-10 8 -19 15 -21 15 -8 0 -32 -41 -28 -47 2 -4 -8 -5 -23 -2 l-26 5 24 -20
c13 -11 19 -20 12 -21 -6 0 -15 5 -18 10 -4 6 -10 8 -15 5 -9 -6 -6 -37 5 -55
3 -5 1 -18 -5 -27 -10 -15 -11 -15 -6 -1 6 22 -4 30 -21 17 -8 -7 -13 -8 -13
-1 0 5 6 12 13 15 8 3 12 18 11 36 -2 27 5 36 43 63 25 18 50 33 56 34 7 0 14
2 17 3 19 9 41 7 51 -5 15 -18 33 -18 26 0 -3 8 1 20 8 26 8 7 13 16 10 20
-13 21 18 19 34 -1 16 -20 21 -21 34 -11 13 11 19 10 36 -7 13 -13 21 -16 21
-8 0 6 6 3 12 -7 10 -18 11 -18 29 5 15 20 17 21 16 5 -1 -10 6 -23 16 -30 15
-9 22 -7 40 15 12 15 30 25 39 24 18 -3 62 46 53 59 -3 3 -2 4 2 1 4 -3 8 -12
9 -20z m-1140 -12 c-9 -9 -46 -11 -46 -2 0 5 5 9 11 9 5 0 7 5 4 11 -4 6 2 5
13 -2 12 -7 20 -15 18 -16z m4 -27 c-14 -8 -29 -12 -33 -9 -5 3 -14 -1 -19 -8
-8 -12 -9 -11 -5 1 2 8 11 15 20 15 8 0 19 4 23 8 4 4 14 7 23 7 10 -1 7 -5
-9 -14z m365 -7 c11 -17 -1 -21 -15 -4 -8 9 -8 15 -2 15 6 0 14 -5 17 -11z
m473 -35 c7 -1 22 -14 33 -28 12 -15 25 -23 32 -19 7 4 19 8 27 8 8 0 14 7 12
15 -3 11 0 12 8 4 6 -6 8 -18 4 -27 -5 -13 -10 -15 -27 -6 -21 10 -21 10 -3
-5 11 -9 18 -16 15 -17 -2 0 -12 -2 -21 -4 -10 -2 -18 0 -18 5 0 5 -11 7 -25
6 -16 -2 -22 1 -18 8 4 6 -1 5 -11 -3 -13 -11 -19 -12 -29 -2 -9 10 -8 11 7 5
16 -6 18 -4 13 9 -6 15 -4 16 14 6 11 -6 23 -8 26 -6 2 3 -5 8 -16 12 -12 3
-19 10 -16 15 3 5 0 12 -6 16 -8 4 -9 3 -5 -4 4 -7 2 -12 -3 -12 -6 0 -11 5
-11 12 0 6 -3 9 -6 6 -3 -4 0 -16 6 -28 11 -20 10 -21 -10 -10 -20 10 -21 10
-11 -8 6 -11 7 -22 4 -26 -12 -12 -20 -6 -19 16 0 11 -6 23 -14 25 -12 4 -12
3 -1 -5 9 -7 10 -12 2 -16 -6 -4 -11 -1 -11 6 0 10 -3 9 -9 -2 -6 -8 -7 -18
-4 -24 3 -5 1 -6 -5 -2 -6 4 -20 2 -31 -4 -13 -7 -22 -7 -26 0 -3 5 0 10 7 11
10 0 11 2 0 6 -10 4 -10 8 0 21 9 11 4 10 -13 -3 -16 -12 -25 -27 -23 -37 1
-10 -1 -18 -7 -18 -5 0 -9 -5 -9 -11 0 -5 4 -8 9 -4 5 3 12 1 16 -4 3 -6 -3
-8 -15 -6 -11 2 -20 0 -20 -6 0 -5 5 -9 10 -9 6 0 3 -11 -7 -24 -12 -16 -21
-21 -28 -15 -6 7 -6 12 1 17 11 7 11 25 0 71 -5 22 -4 23 13 7 15 -14 19 -15
24 -3 3 8 0 20 -6 26 -9 10 -9 12 3 9 8 -2 14 2 13 9 -4 17 34 37 42 23 4 -6
12 -7 18 -3 7 4 7 0 -1 -10 -16 -19 -8 -38 14 -30 8 3 12 8 9 11 -8 8 34 34
45 27 11 -7 32 29 22 40 -4 5 0 4 8 -1 8 -4 21 -9 28 -10z m237 -24 c-10 -11
-12 -20 -7 -24 7 -4 6 -15 -1 -31 -13 -27 -27 -33 -27 -11 0 8 3 16 8 19 4 2
1 2 -6 0 -8 -1 -10 2 -6 9 5 7 3 8 -6 3 -9 -6 -11 -4 -5 5 5 9 4 11 -3 6 -9
-5 -9 -13 -2 -26 7 -13 7 -21 0 -25 -6 -4 -9 -1 -8 6 2 7 -2 13 -9 14 -15 0
-30 15 -15 15 7 0 12 5 12 10 0 6 -8 5 -20 -2 -11 -7 -15 -15 -10 -16 7 -3 7
-9 -1 -18 -10 -12 -14 -12 -22 -2 -7 10 -8 9 -4 -3 3 -9 -1 -16 -9 -16 -14 0
-12 6 19 49 13 17 26 25 40 22 11 -2 25 0 31 4 6 3 18 7 26 7 9 0 15 9 14 23
-1 18 1 20 13 11 11 -10 11 -14 -2 -29z m-298 -54 c-1 -6 -6 -14 -12 -18 -6
-5 -3 -8 6 -8 9 0 22 6 28 13 10 13 21 13 109 5 6 -1 12 -6 12 -11 0 -5 -7 -7
-15 -4 -8 4 -17 2 -20 -3 -4 -6 -12 -10 -18 -9 -9 0 -8 2 1 6 6 2 10 9 7 14
-4 5 -12 3 -19 -4 -10 -9 -11 -14 -2 -20 7 -5 3 -7 -9 -5 -11 2 -20 8 -20 15
0 6 -4 15 -8 20 -5 4 -7 1 -5 -7 2 -8 -3 -14 -9 -12 -7 1 -12 -1 -12 -5 3 -21
-2 -34 -11 -28 -6 4 -7 11 -4 17 4 7 2 8 -4 4 -7 -4 -13 -4 -13 1 -6 37 -4 50
7 50 7 0 12 -5 11 -11z m-95 -26 c-3 -11 0 -11 12 0 9 7 16 9 16 4 0 -5 5 -2
10 6 8 12 11 13 19 1 11 -16 2 -53 -11 -45 -5 3 -4 12 3 20 8 10 8 14 0 14 -6
0 -11 -6 -11 -12 0 -9 -4 -8 -10 2 -7 11 -10 12 -10 2 0 -20 -33 -10 -36 11
-1 10 3 16 9 14 7 -3 11 -10 9 -17z m325 7 c-1 -5 8 -10 20 -12 13 -1 26 -5
30 -9 5 -4 -1 -6 -12 -4 -14 2 -20 -2 -19 -14 1 -10 -4 -14 -12 -11 -7 2 -10
12 -7 21 3 11 2 13 -4 6 -4 -6 -16 -10 -25 -8 -10 1 -20 -2 -24 -7 -3 -5 -9
-7 -14 -4 -5 3 -11 1 -15 -5 -3 -5 -11 -10 -17 -10 -6 0 -5 7 3 18 13 15 12
16 -3 4 -9 -8 -22 -11 -28 -7 -5 3 -13 -1 -16 -9 -7 -19 -25 -22 -21 -4 4 22
50 46 70 36 9 -5 17 -5 17 -1 0 4 4 2 9 -5 6 -10 12 -7 24 11 15 23 48 34 44
14z m-542 -27 c-1 -17 1 -33 5 -35 12 -7 33 23 25 35 -4 6 -1 9 7 8 7 -2 12 3
10 10 -1 8 2 11 8 7 6 -3 8 -10 5 -15 -3 -5 5 -16 17 -24 17 -12 25 -13 37 -3
12 10 13 9 7 -1 -10 -17 21 -65 37 -56 7 4 8 3 4 -1 -10 -12 -38 -15 -32 -4 4
5 -1 6 -9 3 -11 -4 -14 0 -11 15 2 12 0 21 -6 21 -5 0 -9 -5 -9 -11 0 -5 -5
-7 -10 -4 -6 4 -8 10 -5 15 3 5 0 12 -6 16 -8 4 -9 3 -5 -4 4 -7 2 -12 -4 -12
-7 0 -10 7 -7 14 4 10 1 13 -9 9 -10 -4 -12 -9 -4 -18 5 -6 7 -15 3 -19 -4 -4
0 -4 8 -1 9 3 21 -1 28 -8 9 -12 8 -16 -4 -21 -9 -3 -13 -2 -10 3 3 5 1 12 -4
15 -5 4 -13 1 -17 -5 -4 -8 -3 -9 4 -5 8 5 10 1 5 -10 -5 -14 -3 -16 10 -11
14 5 16 3 8 -12 -8 -13 -6 -18 5 -18 8 0 13 6 10 12 -2 7 -1 18 4 25 6 9 12 8
28 -8 14 -14 22 -17 25 -9 3 7 4 -3 2 -21 -2 -18 0 -30 5 -27 5 3 6 13 3 23
-5 14 -3 15 7 5 8 -7 15 -23 17 -35 2 -18 1 -20 -6 -8 -6 8 -13 11 -18 7 -9
-9 17 -28 29 -21 4 3 8 3 8 0 0 -2 3 -13 7 -23 7 -17 6 -17 -19 -1 -20 13 -28
14 -39 5 -11 -10 -12 -9 -2 2 7 9 9 20 4 30 -9 16 -11 23 -11 42 0 6 -5 7 -12
2 -35 -21 -98 3 -81 30 3 5 -7 22 -23 38 -25 27 -38 63 -27 82 8 13 10 7 8
-23z m360 -11 c-4 -5 -1 -9 5 -9 6 0 9 -4 5 -9 -3 -5 -1 -12 4 -15 14 -9 42 4
35 16 -4 6 3 5 15 -2 17 -9 26 -9 37 1 8 7 14 7 14 1 0 -13 -26 -24 -70 -27
-35 -4 -64 10 -55 25 3 5 1 11 -5 15 -6 4 -8 11 -4 16 3 5 10 7 15 3 5 -3 7
-10 4 -15z m-102 -34 c-9 -16 -11 -16 -16 -1 -4 10 -3 15 3 11 6 -3 10 -2 10
4 0 5 -9 9 -19 8 -11 0 -19 -6 -18 -12 1 -5 -5 -10 -13 -9 -12 1 -16 -9 -16
-42 1 -23 4 -40 7 -38 4 2 9 -3 13 -11 3 -8 1 -15 -5 -15 -5 0 -4 -6 3 -14 7
-8 17 -13 22 -13 5 1 10 -4 12 -11 1 -7 0 -8 -3 -2 -2 5 -9 7 -15 4 -6 -4 -5
-10 3 -15 7 -4 10 -12 5 -16 -8 -7 -19 8 -16 22 0 3 -6 13 -15 21 -8 9 -13 19
-10 24 3 4 -2 13 -10 20 -8 7 -12 16 -9 21 3 5 0 9 -7 9 -9 0 -9 4 1 15 6 8 9
18 6 23 -3 6 1 15 9 22 8 7 12 17 8 23 -3 6 -1 7 5 3 7 -4 20 -3 29 3 25 14
49 -10 36 -34z m77 23 c8 2 12 1 7 -3 -4 -5 0 -16 9 -26 10 -11 12 -19 4 -24
-5 -3 -7 -11 -4 -17 4 -6 1 -9 -7 -6 -8 3 -13 17 -13 33 l1 28 -18 -24 c-10
-13 -19 -27 -19 -31 0 -18 -16 -6 -17 12 -1 11 2 18 7 15 11 -6 32 29 23 38
-11 11 -22 -3 -17 -21 5 -13 4 -14 -4 -3 -8 11 -11 9 -17 -8 -4 -13 -9 -20
-11 -18 -3 2 3 21 12 41 15 31 20 34 33 22 9 -7 23 -11 31 -8z m286 3 c4 7 9
8 17 0 7 -7 7 -14 -1 -24 -7 -8 -8 -18 -4 -22 4 -5 1 -4 -7 0 -11 6 -13 4 -8
-7 7 -21 -3 -31 -19 -18 -9 8 -12 6 -10 -6 1 -12 -8 -18 -29 -21 -24 -3 -27
-1 -15 7 12 9 10 10 -10 5 l-25 -6 25 15 c21 12 26 12 36 -1 9 -14 11 -12 10
8 -1 13 4 23 10 22 7 -1 20 7 29 17 11 12 13 20 7 20 -7 0 -12 -5 -12 -10 0
-13 -49 21 -50 34 0 4 11 1 24 -8 17 -11 27 -12 32 -5z m-88 -8 c4 -5 17 -9
30 -8 12 1 28 -5 35 -14 8 -10 9 -13 0 -8 -6 4 -14 3 -18 -3 -4 -7 -16 -4 -33
8 -29 20 -46 22 -59 8 -5 -5 -2 -6 7 -2 8 4 6 1 -4 -8 -10 -8 -23 -13 -28 -10
-5 3 -8 2 -7 -3 3 -20 -2 -34 -11 -28 -6 4 -8 10 -6 14 9 14 -32 5 -48 -11
-12 -12 -13 -18 -3 -21 7 -4 5 -6 -5 -7 -10 -2 -24 -3 -30 -4 -7 -1 -18 5 -25
14 -9 11 -13 11 -14 3 -3 -23 -4 -28 -12 -40 -5 -7 -13 -13 -18 -13 -5 0 -1
12 8 27 12 17 13 24 4 19 -8 -6 -7 1 4 18 15 23 34 39 21 17 -8 -12 21 -34 34
-26 6 3 8 10 5 14 -6 11 41 32 57 26 15 -6 78 30 78 44 0 12 30 8 38 -6z
m-268 -58 c4 3 7 -3 6 -12 -2 -10 1 -21 7 -24 12 -8 -1 -31 -13 -24 -5 3 -7
14 -5 25 3 13 -1 17 -11 13 -9 -3 -13 0 -11 8 2 8 2 11 0 7 -3 -5 -9 -8 -14
-8 -11 0 -7 22 6 33 6 5 -1 5 -15 2 -24 -7 -24 -7 -5 8 19 14 21 14 33 -9 7
-14 17 -22 22 -19z m283 22 c4 3 7 1 7 -5 0 -11 -13 -16 -32 -13 -5 0 -8 -4
-8 -9 0 -6 -6 -10 -12 -9 -27 3 -39 -1 -32 -13 4 -7 3 -8 -4 -4 -7 4 -12 3
-12 -3 0 -5 -8 -8 -17 -6 -10 2 -20 4 -23 4 -3 1 2 6 10 12 12 9 11 10 -7 6
-16 -3 -20 -1 -16 9 5 13 9 12 29 -1 22 -14 24 -13 34 5 7 12 16 17 28 13 9
-3 14 -3 10 2 -4 4 -2 15 4 22 10 13 14 13 23 -1 7 -9 15 -13 18 -9z m-334
-24 c-3 -17 1 -33 9 -32 16 3 32 -1 31 -8 -3 -20 2 -31 17 -37 20 -8 56 21 48
38 -3 6 1 3 9 -6 16 -20 32 -25 21 -6 -4 7 -3 8 4 4 6 -4 21 -2 32 4 13 7 26
8 33 3 14 -10 23 -10 55 1 12 4 20 12 16 17 -3 5 11 2 31 -8 28 -13 32 -19 20
-26 -8 -4 -20 -5 -25 -2 -15 9 -30 -3 -24 -19 3 -8 16 -13 30 -11 24 2 24 2 7
-17 -16 -18 -18 -18 -30 -2 -11 15 -13 14 -19 -10 -7 -28 -21 -34 -30 -13 -3
8 -11 14 -19 14 -14 0 -17 -5 -14 -24 1 -7 -30 -26 -48 -29 -7 -1 -13 2 -13 7
0 5 -5 9 -11 9 -5 0 -7 -6 -4 -12 4 -7 -2 -3 -13 9 -19 22 -19 22 -41 2 -21
-20 -21 -20 -18 1 4 23 27 52 27 33 0 -6 8 -10 18 -8 9 1 16 9 14 18 -2 11 2
15 12 11 18 -7 17 -24 -4 -42 -8 -8 -9 -11 -3 -7 7 3 23 1 35 -6 l22 -12 -18
28 c-17 25 -17 27 -2 22 9 -4 15 -3 12 1 -3 4 4 13 15 20 10 7 19 8 19 3 0 -6
-4 -13 -10 -16 -5 -3 -10 -12 -10 -18 0 -7 5 -4 11 6 6 9 14 15 20 12 5 -4 9
-1 9 5 0 6 4 9 9 5 5 -3 12 -1 16 5 4 6 11 8 16 5 5 -4 9 -1 9 4 0 6 -5 11
-11 11 -8 0 -7 5 1 15 11 13 10 14 -4 9 -9 -3 -16 -11 -16 -17 0 -6 -3 -7 -7
-4 -3 4 -13 1 -21 -6 -13 -10 -15 -9 -9 6 5 12 3 16 -5 11 -7 -5 -8 -2 -3 7 4
8 -2 4 -14 -8 -21 -22 -48 -32 -37 -15 9 16 -30 6 -68 -16 -20 -12 -34 -27
-31 -32 3 -6 -1 -13 -10 -16 -13 -5 -14 -9 -4 -15 8 -4 10 -11 6 -16 -17 -17
-25 21 -9 45 15 23 15 26 -7 43 -13 11 -20 19 -17 19 4 0 0 13 -9 30 -18 34
-18 40 -5 40 6 0 9 -3 9 -7z m174 -83 c21 11 21 11 2 -5 -11 -8 -26 -13 -35
-9 -28 11 -35 9 -34 -8 1 -10 -4 -14 -12 -11 -18 7 -18 13 3 28 12 9 23 10 35
4 12 -6 26 -6 41 1z m72 1 c-9 -8 -36 -10 -30 -2 2 4 11 8 20 8 8 0 13 -3 10
-6z"/>
<path d="M2150 3235 c0 -8 4 -15 10 -15 5 0 7 7 4 15 -4 8 -8 15 -10 15 -2 0
-4 -7 -4 -15z"/>
<path d="M2221 3031 c-9 -6 -1 -17 28 -38 28 -21 37 -33 31 -41 -6 -7 -7 -10
-4 -7 4 3 13 0 20 -6 9 -7 12 -6 10 7 -1 9 -11 23 -21 30 -12 9 -14 14 -6 14
11 0 11 3 1 16 -20 23 -45 34 -59 25z m49 -33 c0 -5 -9 -3 -20 4 -11 7 -20 16
-20 20 0 5 9 3 20 -4 11 -7 20 -16 20 -20z"/>
<path d="M2290 2894 c-7 -8 -10 -15 -6 -15 3 -1 11 -3 16 -4 6 -1 15 -3 21 -4
5 0 8 -5 5 -9 -2 -4 -1 -14 3 -21 6 -10 10 -9 14 3 4 9 -2 21 -14 30 -14 9
-16 15 -8 18 9 3 8 6 -3 11 -9 3 -22 -1 -28 -9z"/>
<path d="M2367 2804 c5 -14 3 -16 -12 -11 -16 7 -16 6 -3 -14 8 -12 22 -23 32
-25 14 -2 16 0 7 9 -6 6 -11 19 -11 28 0 10 -4 21 -10 24 -6 4 -7 -1 -3 -11z"/>
<path d="M1213 2906 c0 -15 5 -18 23 -15 4 0 10 -5 15 -12 4 -8 12 -10 16 -5
8 8 -11 21 -21 14 -3 -2 -11 5 -19 16 -12 16 -14 16 -14 2z"/>
<path d="M1296 2821 c-20 -21 -36 -22 -62 -1 -18 14 -18 14 -1 -7 15 -17 41
-23 55 -13 1 2 6 3 11 4 5 0 12 4 16 8 4 4 14 4 23 1 18 -7 17 -5 -9 15 -13
10 -19 8 -33 -7z"/>
<path d="M1343 2785 c0 -8 4 -12 9 -9 5 3 6 10 3 15 -9 13 -12 11 -12 -6z"/>
<path d="M1300 2411 c0 -5 5 -13 10 -16 6 -3 10 -2 10 4 0 5 -4 13 -10 16 -5
3 -10 2 -10 -4z"/>
<path d="M3543 2282 c-8 -5 -6 -13 7 -29 9 -12 21 -19 25 -15 4 4 3 -3 -4 -15
-10 -19 -8 -24 10 -33 11 -7 23 -9 27 -6 3 3 1 6 -5 6 -6 0 -10 18 -9 41 2 29
-3 43 -15 50 -21 11 -21 11 -36 1z m37 -24 c0 -6 -6 -5 -15 2 -8 7 -15 14 -15
16 0 2 7 1 15 -2 8 -4 15 -11 15 -16z"/>
<path d="M3745 2229 c-11 -17 1 -21 15 -4 8 9 8 15 2 15 -6 0 -14 -5 -17 -11z"/>
<path d="M3610 2200 c0 -5 5 -10 10 -10 6 0 10 5 10 10 0 6 -4 10 -10 10 -5 0
-10 -4 -10 -10z"/>
<path d="M3631 2189 c-13 -11 -31 -17 -40 -14 -25 8 -21 -32 4 -43 15 -7 27
-6 40 5 19 14 18 14 -13 10 -18 -3 -30 -1 -26 4 3 5 10 7 15 4 5 -4 9 -1 9 5
0 6 4 8 10 5 5 -3 18 -1 27 5 15 9 14 10 -7 5 -21 -5 -22 -4 -7 5 27 17 41 2
23 -26 -9 -13 -16 -27 -16 -33 0 -14 29 -21 36 -9 4 6 3 8 -4 4 -17 -10 -23
10 -7 24 8 7 12 17 8 23 -3 6 -1 7 6 3 6 -4 8 -12 5 -18 -5 -8 -1 -9 10 -5 10
4 20 7 22 7 2 0 4 5 4 11 0 6 -6 9 -14 6 -9 -3 -21 4 -30 19 -20 29 -24 29
-55 3z"/>
<path d="M3758 2184 c-36 -43 -51 -55 -63 -50 -8 3 -17 1 -20 -5 -4 -5 -1 -8
7 -7 8 2 12 -4 10 -15 -3 -17 -1 -17 21 -3 13 9 27 13 30 9 4 -3 7 -1 7 6 0 8
-8 10 -22 6 -21 -5 -21 -5 2 9 16 9 29 11 36 5 8 -6 14 -6 17 1 4 7 5 7 4 0
-2 -7 -6 -11 -11 -10 -9 2 -26 -19 -26 -34 0 -5 6 -3 14 3 11 9 16 9 22 0 5
-8 3 -9 -6 -4 -9 6 -11 4 -5 -5 5 -8 1 -18 -10 -27 -11 -7 -13 -13 -6 -13 7 0
10 -4 6 -9 -3 -5 0 -13 6 -17 7 -4 9 -3 5 4 -3 6 -2 14 4 17 6 4 9 1 8 -6 -2
-6 3 -14 10 -16 12 -4 12 -1 1 18 -7 13 -12 29 -10 34 9 30 6 72 -6 87 -8 9
-12 22 -8 27 10 17 -3 13 -17 -5z m17 -24 c3 -6 -1 -7 -9 -4 -18 7 -21 14 -7
14 6 0 13 -4 16 -10z"/>
<path d="M3629 2128 c-1 -5 -2 -12 -3 -17 0 -5 -5 -13 -9 -18 -5 -4 -7 -2 -5
6 2 7 -4 16 -12 18 -10 3 -11 2 -4 -4 6 -4 10 -20 8 -35 -1 -15 4 -32 12 -39
9 -7 14 -8 14 -1 0 6 -6 13 -12 15 -10 4 -10 6 -1 6 7 1 10 8 7 16 -7 18 7 20
25 3 11 -11 12 -10 6 1 -6 10 -4 12 4 7 9 -6 9 -11 0 -22 -6 -7 -16 -11 -21
-8 -6 4 -4 -4 3 -17 7 -13 12 -30 11 -36 -2 -7 2 -13 8 -13 6 0 9 -4 5 -9 -3
-5 -1 -12 5 -16 6 -4 7 -11 4 -17 -4 -7 -2 -8 5 -4 8 5 10 0 7 -19 -3 -15 -2
-25 1 -21 3 3 21 -5 38 -19 18 -13 36 -21 40 -17 4 4 5 0 3 -8 -3 -8 -11 -14
-17 -12 -7 1 -9 -2 -5 -9 5 -8 16 -1 35 22 15 19 23 36 18 37 -6 3 -5 9 2 18
8 10 8 14 0 14 -6 0 -11 -5 -11 -12 0 -6 -2 -9 -5 -6 -8 7 6 39 14 34 4 -3 7
11 7 30 0 19 -4 35 -8 35 -4 1 -13 2 -19 3 -6 0 -18 11 -26 23 -14 20 -14 23
1 29 20 8 21 21 1 21 -8 0 -12 -4 -9 -9 3 -4 0 -8 -7 -8 -7 0 -9 8 -6 21 5 19
4 19 -16 6 -26 -17 -60 -8 -76 20 -6 10 -11 15 -12 11z m95 -62 c3 -21 47 -67
57 -60 5 3 9 2 10 -3 0 -4 2 -16 4 -26 2 -10 -2 -20 -9 -23 -15 -6 -17 -34 -3
-52 5 -7 7 -16 3 -19 -15 -15 -34 -9 -67 19 -18 16 -28 27 -21 23 19 -10 14
10 -8 30 -11 10 -18 20 -15 23 3 3 0 11 -6 19 -6 7 -8 13 -4 13 4 0 2 6 -4 14
-10 12 -8 19 8 35 13 13 21 16 24 8 3 -8 7 -5 12 6 8 20 15 17 19 -7z"/>
<path d="M3705 2060 c-4 -6 -10 -8 -15 -5 -4 3 -13 -2 -19 -9 -8 -10 -9 -16
-1 -21 6 -3 8 -10 5 -15 -3 -5 -1 -11 5 -15 6 -4 8 -10 5 -14 -2 -5 4 -16 14
-25 13 -12 21 -14 26 -6 7 12 25 4 25 -11 0 -6 -4 -8 -9 -5 -5 3 -15 -2 -22
-12 -13 -15 -12 -16 3 -4 11 9 18 10 23 2 3 -5 1 -10 -6 -10 -10 0 -10 -3 -2
-11 17 -17 37 -1 22 17 -9 11 -9 14 0 14 7 0 10 4 6 9 -3 6 3 14 12 20 11 6
13 11 5 11 -7 0 -11 4 -8 8 3 5 -10 24 -29 42 -19 18 -32 37 -29 42 3 4 3 8 0
8 -3 0 -8 -5 -11 -10z m34 -44 c16 -15 28 -35 26 -44 -2 -10 -4 -19 -4 -21 -1
-2 -7 2 -15 8 -10 9 -16 9 -21 1 -5 -8 -11 -8 -21 1 -7 6 -12 15 -9 19 3 5 1
11 -5 15 -6 4 -8 10 -5 15 3 5 1 11 -5 15 -6 4 -8 10 -5 15 9 14 34 5 64 -24z"/>
<path d="M3688 2026 c4 -6 7 -14 8 -18 1 -5 3 -10 4 -13 3 -5 7 -20 9 -32 0
-4 6 -2 13 5 8 8 15 8 24 1 22 -18 10 18 -14 44 -22 23 -57 34 -44 13z m43
-23 c13 -16 20 -25 15 -21 -5 4 -15 3 -23 -4 -8 -6 -13 -7 -12 -2 1 5 0 11 -1
14 -3 10 -8 40 -6 40 1 0 13 -12 27 -27z"/>
<path d="M3034 1908 c-43 -50 -58 -71 -46 -64 7 4 12 2 12 -5 0 -28 16 8 19
44 1 5 7 5 14 1 6 -4 9 -3 4 1 -4 5 0 17 10 27 9 10 14 18 11 18 -2 0 -13 -10
-24 -22z"/>
<path d="M2925 1739 c2 -11 13 -31 23 -44 16 -21 21 -22 26 -9 3 8 2 12 -3 9
-5 -3 -12 -1 -16 5 -3 5 -1 10 6 10 8 0 8 4 1 13 -6 6 -10 16 -9 21 1 5 -6 10
-15 12 -11 1 -15 -4 -13 -17z m22 -11 c2 -17 0 -19 -7 -8 -5 8 -6 18 -4 22 8
12 10 10 11 -14z"/>
<path d="M3473 1596 c4 -5 -1 -19 -10 -30 -15 -17 -15 -19 -1 -8 10 8 19 9 22
3 3 -5 17 -8 31 -7 14 2 31 -5 40 -14 17 -19 46 -21 45 -4 0 5 -4 9 -8 9 -5 0
-16 8 -26 18 -14 14 -21 15 -32 6 -12 -10 -20 -7 -42 12 -15 13 -24 20 -19 15z
m92 -46 c10 -11 16 -20 13 -20 -3 0 -13 9 -23 20 -10 11 -16 20 -13 20 3 0 13
-9 23 -20z"/>
<path d="M3770 1575 c-7 -8 -17 -12 -23 -8 -6 4 -7 1 -3 -6 6 -9 12 -9 25 3
10 9 21 13 26 9 4 -5 5 -2 1 5 -9 15 -11 15 -26 -3z"/>
<path d="M3393 1529 c7 -11 13 -15 15 -9 2 6 9 7 15 4 8 -5 8 -2 0 6 -7 8 -19
15 -27 16 -12 2 -13 -1 -3 -17z"/>
<path d="M3626 1541 c-4 -5 -2 -12 3 -15 5 -4 12 -2 15 3 4 5 2 12 -3 15 -5 4
-12 2 -15 -3z"/>
<path d="M3299 1503 c-13 -16 -12 -17 4 -4 16 13 21 21 13 21 -2 0 -10 -8 -17
-17z"/>
<path d="M3286 1427 c3 -10 9 -15 12 -12 3 3 0 11 -7 18 -10 9 -11 8 -5 -6z"/>
<path d="M3700 1496 c0 -3 9 -10 20 -16 11 -6 20 -8 20 -6 0 3 -9 10 -20 16
-11 6 -20 8 -20 6z"/>
<path d="M3646 1432 c-3 -5 1 -9 9 -9 8 0 12 4 9 9 -3 4 -7 8 -9 8 -2 0 -6 -4
-9 -8z"/>
<path d="M3156 1372 c-3 -5 1 -15 8 -21 11 -10 14 -9 12 3 -3 21 -13 29 -20
18z"/>
<path d="M3238 1303 c6 -2 9 -10 6 -15 -4 -7 -2 -8 5 -4 13 9 5 26 -12 25 -9
0 -8 -2 1 -6z"/>
<path d="M3370 1256 c0 -2 8 -10 18 -17 15 -13 16 -12 3 4 -13 16 -21 21 -21
13z"/>
<path d="M3596 1215 c-9 -26 -7 -32 5 -12 6 10 9 21 6 23 -2 3 -7 -2 -11 -11z"/>
<path d="M2072 3436 c7 -8 15 -12 17 -11 5 6 -10 25 -20 25 -5 0 -4 -6 3 -14z"/>
<path d="M2100 3351 c0 -6 4 -13 10 -16 6 -3 7 1 4 9 -7 18 -14 21 -14 7z"/>
<path d="M2020 3246 c0 -2 7 -9 15 -16 13 -11 14 -10 9 4 -5 14 -24 23 -24 12z"/>
<path d="M1190 3104 c0 -13 18 -39 24 -34 2 3 -2 14 -10 24 -8 11 -14 16 -14
10z"/>
<path d="M1376 2832 c-3 -5 1 -15 8 -21 11 -10 14 -9 12 3 -3 21 -13 29 -20
18z"/>
<path d="M1415 2784 c7 -10 -15 -45 -25 -39 -4 3 -17 -7 -27 -21 l-19 -26 -32
27 c-18 15 -30 30 -28 34 6 9 -50 6 -81 -4 -13 -4 -20 -12 -16 -18 10 -17 9
-77 -2 -77 -7 0 -7 -3 0 -8 6 -4 10 -16 10 -27 0 -11 -4 -23 -10 -27 -6 -5 -6
-8 2 -8 6 0 9 -9 6 -20 -3 -11 -1 -20 4 -20 6 0 9 29 8 68 -1 37 3 73 8 80 6
7 6 12 0 12 -5 0 -10 7 -10 16 0 14 2 14 15 -2 13 -16 14 -17 9 -2 -4 11 -2
17 6 15 7 -1 11 3 10 9 -1 6 5 11 12 11 10 0 12 -4 5 -12 -7 -8 -2 -16 18 -25
15 -7 32 -12 37 -11 6 1 4 -3 -2 -10 -20 -20 -15 -34 5 -16 15 13 21 14 32 4
10 -10 11 -9 5 3 -5 8 -4 11 0 7 12 -10 15 -38 4 -31 -5 3 -9 0 -9 -6 0 -6 8
-10 18 -8 9 2 15 11 14 19 -7 28 -11 64 -6 52 4 -10 11 -10 26 -2 16 9 19 8
13 -2 -6 -8 -4 -10 5 -4 9 6 11 4 5 -5 -6 -9 -4 -11 5 -5 9 6 11 4 5 -5 -6 -9
-4 -11 6 -5 12 8 12 6 0 -8 -9 -12 -10 -17 -2 -17 7 0 9 -4 6 -10 -3 -5 0 -7
8 -4 8 3 18 0 22 -5 3 -6 10 -9 15 -6 5 3 12 0 16 -6 4 -7 3 -9 -3 -6 -6 4
-17 -1 -24 -10 -12 -15 -12 -16 6 -10 19 7 19 6 2 -7 -12 -9 -14 -16 -8 -21 6
-3 11 -1 11 5 0 6 5 8 10 5 6 -4 10 -3 9 2 -4 21 2 34 13 27 6 -4 3 4 -8 18
-10 14 -22 24 -26 22 -14 -9 -37 9 -35 27 1 12 6 18 16 14 11 -4 11 -2 -1 17
-9 13 -22 23 -29 23 -8 0 -14 8 -14 17 0 9 -4 19 -8 22 -4 3 -5 3 -2 0z m-181
-32 c3 -5 -1 -9 -9 -9 -8 0 -12 4 -9 9 3 4 7 8 9 8 2 0 6 -4 9 -8z m209 -18
c4 -1 10 -2 13 -3 3 0 2 -6 -1 -12 -5 -7 -13 -5 -24 5 -10 9 -21 13 -26 9 -4
-5 -5 -2 -1 5 4 7 13 9 19 5 7 -4 15 -8 20 -9z m-142 -11 c13 -17 13 -17 -6
-3 -11 8 -22 16 -24 17 -2 2 0 3 6 3 6 0 17 -8 24 -17z"/>
<path d="M1228 2705 c-23 -30 -22 -34 1 -32 11 0 18 4 16 7 -2 3 5 7 16 7 11
1 17 -2 14 -7 -3 -5 -1 -11 5 -15 6 -4 8 -11 4 -16 -3 -5 -10 -7 -15 -3 -5 3
-6 10 -3 16 4 6 1 9 -6 6 -7 -2 -14 -12 -16 -22 -1 -11 2 -16 11 -13 7 3 17 1
23 -5 7 -7 14 -3 22 11 9 17 8 22 -5 27 -12 5 -13 10 -5 19 9 10 6 16 -9 25
-12 6 -21 7 -21 3 0 -4 -4 -3 -8 3 -5 8 -13 4 -24 -11z m36 -7 c-4 -5 -9 -7
-12 -4 -3 3 -12 0 -21 -7 -14 -10 -14 -10 -4 4 13 16 46 23 37 7z"/>
<path d="M1385 2701 c-3 -6 4 -19 16 -29 19 -18 19 -20 2 -19 -10 1 -17 -4
-15 -10 3 -16 -3 -16 -28 -3 -13 7 -21 7 -26 -2 -4 -7 -3 -8 4 -4 8 5 10 1 5
-9 -4 -13 -7 -14 -14 -3 -5 7 -2 22 6 35 8 12 11 24 6 28 -9 5 -23 -9 -28 -30
-8 -31 -7 -50 2 -50 20 -1 36 -17 31 -32 -4 -9 -1 -23 6 -32 12 -14 11 -14 -4
-3 -15 12 -17 11 -15 -7 1 -22 12 -27 22 -11 3 5 19 8 35 6 30 -3 70 17 70 36
0 6 -7 5 -16 -3 -23 -19 -71 -20 -86 -1 -8 9 -8 13 -2 9 7 -4 18 0 25 9 11 13
10 15 -5 12 -20 -3 -32 27 -15 38 5 3 8 0 7 -7 -2 -6 3 -14 11 -17 8 -2 11 0
7 6 -3 5 4 16 17 25 19 12 24 12 36 0 14 -15 33 -14 32 2 -1 6 -8 10 -17 10
-8 0 -20 8 -25 18 -6 9 -7 17 -3 17 3 0 1 7 -6 15 -14 17 -26 19 -35 6z m25
-11 c0 -5 -2 -10 -4 -10 -3 0 -8 5 -11 10 -3 6 -1 10 4 10 6 0 11 -4 11 -10z"/>
<path d="M1223 2663 c-9 -3 -10 -10 -3 -24 7 -13 7 -19 0 -19 -12 0 -9 -22 5
-32 6 -4 19 -5 30 -2 16 4 17 3 5 -5 -8 -6 -24 -8 -35 -4 -18 5 -18 5 -2 -21
10 -15 13 -26 7 -26 -6 0 -8 -5 -4 -11 4 -8 14 2 26 25 10 20 23 36 29 36 6 0
-3 11 -20 25 -19 17 -28 33 -26 45 2 11 3 20 2 19 -1 0 -8 -3 -14 -6z m27 -64
c0 -5 -4 -9 -8 -9 -5 0 -9 7 -9 15 0 8 4 12 9 9 4 -3 8 -9 8 -15z"/>
<path d="M1400 2620 c-13 -9 -13 -10 0 -10 13 0 13 -1 0 -11 -12 -8 -11 -9 5
-6 11 2 19 8 18 15 -2 6 4 9 13 5 11 -4 12 -8 4 -13 -7 -4 -8 -10 -4 -12 5 -3
3 -3 -3 -2 -7 2 -13 -1 -13 -6 0 -5 -6 -7 -13 -4 -8 3 -20 -2 -27 -11 -8 -9
-8 -15 -2 -15 6 0 14 5 18 11 4 8 9 7 15 -2 6 -11 12 -10 27 4 26 24 35 21 28
-7 -6 -23 14 -53 27 -39 4 3 13 0 21 -6 17 -14 24 -5 21 29 -1 14 2 28 7 31 5
3 -5 6 -21 6 -16 0 -30 -3 -29 -6 2 -19 -3 -31 -13 -31 -8 0 -8 4 0 14 9 10 8
16 -4 26 -8 7 -13 16 -10 20 2 4 -7 12 -21 19 -30 13 -25 13 -44 1z m120 -70
c-13 -9 -13 -11 0 -20 9 -6 10 -10 3 -10 -15 0 -26 17 -18 30 3 6 12 10 18 10
7 0 6 -4 -3 -10z"/>
<path d="M1310 2560 c0 -5 5 -10 10 -10 6 0 10 5 10 10 0 6 -4 10 -10 10 -5 0
-10 -4 -10 -10z"/>
<path d="M1549 2523 c-7 -38 -5 -53 7 -53 17 0 18 12 2 28 -9 9 -9 12 0 12 7
0 12 5 12 10 0 12 -19 14 -21 3z"/>
<path d="M3056 2012 c-3 -5 1 -9 9 -9 8 0 12 4 9 9 -3 4 -7 8 -9 8 -2 0 -6 -4
-9 -8z"/>
<path d="M2270 1850 c0 -3 4 -11 9 -19 7 -11 11 -10 20 7 10 18 8 21 -9 19
-11 -1 -20 -4 -20 -7z"/>
<path d="M2170 1824 c-13 -13 -21 -24 -16 -24 5 0 2 -8 -5 -17 -9 -11 -10 -14
-2 -10 8 5 15 -1 19 -17 3 -13 12 -27 21 -30 8 -3 11 -10 8 -16 -3 -5 -1 -10
4 -10 6 0 11 -4 11 -10 0 -15 42 -60 50 -55 4 3 10 -5 13 -17 4 -12 9 -19 13
-15 3 3 15 -4 25 -16 10 -12 18 -18 19 -13 0 5 8 1 19 -8 20 -18 60 -30 103
-29 15 0 26 -3 23 -7 -2 -3 10 -5 28 -4 18 1 40 3 49 3 20 1 20 30 -1 55 -7 8
-9 20 -5 27 4 7 2 10 -7 7 -8 -3 -13 -11 -11 -18 3 -11 0 -11 -12 0 -13 10
-16 10 -16 0 0 -9 -3 -10 -14 -1 -10 9 -16 8 -26 -4 -7 -8 -16 -13 -20 -10 -4
3 -10 -1 -13 -9 -7 -18 22 -15 33 4 7 11 11 11 24 1 9 -8 16 -9 16 -4 0 5 9 9
20 9 18 0 22 -4 19 -22 0 -4 5 -11 13 -16 10 -8 10 -9 -2 -5 -8 2 -14 10 -12
16 1 6 -8 11 -20 11 -21 0 -21 0 -2 -22 10 -13 12 -17 4 -10 -18 15 -34 16
-24 0 4 -7 3 -8 -4 -4 -6 4 -8 14 -5 24 6 14 4 15 -9 5 -8 -7 -18 -10 -21 -6
-4 3 -7 1 -7 -5 0 -7 -5 -12 -11 -12 -5 0 -8 4 -4 9 3 6 -4 8 -15 6 -16 -3
-18 0 -12 13 13 27 8 85 -6 90 -11 3 -12 0 -2 -18 10 -18 9 -24 -1 -31 -12 -7
-11 -11 1 -19 10 -6 11 -10 3 -10 -7 0 -13 -8 -13 -17 -1 -17 -1 -17 -11 -1
-7 12 -6 24 2 39 9 17 8 20 -3 16 -7 -2 -12 -9 -11 -15 1 -5 -4 -13 -13 -16
-11 -4 -12 -2 -5 13 10 18 6 31 -10 31 -4 0 -6 -9 -4 -20 2 -11 -1 -23 -7 -26
-7 -5 -8 -2 -3 6 6 9 4 11 -6 5 -12 -7 -12 -6 -1 7 9 11 10 18 2 23 -5 3 -10
2 -10 -3 0 -5 -6 -9 -14 -9 -8 0 -13 8 -11 19 2 10 0 16 -5 13 -6 -3 -7 2 -4
12 6 15 4 15 -9 -2 l-16 -20 2 20 c1 11 -3 19 -9 18 -5 -1 -15 6 -21 16 -10
15 -8 20 12 29 15 7 26 8 30 2 4 -6 11 -10 16 -10 10 0 6 57 -5 68 -3 3 0 12
7 21 10 14 10 14 -5 3 -9 -8 -22 -11 -27 -8 -5 4 -13 2 -16 -4 -9 -14 15 -42
30 -36 6 2 12 -1 12 -8 0 -6 -8 -12 -18 -12 -10 0 -15 5 -12 11 4 5 -2 2 -13
-7 -14 -12 -24 -14 -34 -7 -11 7 -12 11 -3 17 7 4 9 13 4 20 -4 8 -6 29 -4 48
2 19 2 34 1 33 -2 0 -14 -11 -28 -25z m20 -23 c0 -5 -7 -11 -14 -14 -10 -4
-13 -1 -9 9 6 15 23 19 23 5z m71 -28 c13 -16 12 -17 -3 -4 -10 7 -18 15 -18
17 0 8 8 3 21 -13z m-71 -13 c0 -5 -2 -10 -4 -10 -3 0 -8 5 -11 10 -3 6 -1 10
4 10 6 0 11 -4 11 -10z"/>
<path d="M3523 1829 c-1 -10 5 -23 13 -30 11 -9 14 -8 14 2 0 8 9 20 20 27 13
8 20 8 20 1 0 -5 5 -7 10 -4 6 3 10 1 10 -6 0 -8 7 -5 20 6 17 16 20 16 26 2
3 -9 12 -13 20 -10 7 3 17 -2 20 -11 3 -9 11 -13 17 -9 6 3 7 1 3 -5 -4 -6
-14 -8 -24 -5 -15 6 -15 5 -3 -10 7 -9 18 -14 24 -10 6 3 7 1 3 -5 -4 -7 -3
-12 3 -12 6 0 9 16 7 38 -2 23 -8 36 -16 34 -7 -1 -23 4 -36 13 -18 11 -29 13
-43 6 -10 -6 -21 -7 -25 -4 -4 4 -24 7 -44 8 -29 1 -38 -3 -39 -16z"/>
<path d="M2924 1828 c-7 -12 -14 -48 -8 -48 9 0 32 50 25 55 -5 3 -13 0 -17
-7z"/>
<path d="M2230 1820 c0 -5 5 -10 10 -10 6 0 10 5 10 10 0 6 -4 10 -10 10 -5 0
-10 -4 -10 -10z"/>
<path d="M3626 1809 c-23 -33 -19 -49 4 -20 11 13 20 17 20 10 0 -7 3 -10 6
-6 3 3 2 13 -4 22 -8 16 -11 15 -26 -6z"/>
<path d="M3437 1805 c-9 -8 -17 -20 -19 -25 -3 -10 -41 -20 -78 -21 -10 0 -16
-10 -15 -26 0 -31 17 -40 35 -18 15 18 0 20 -19 3 -11 -10 -10 -8 0 10 20 32
36 26 30 -10 -1 -10 13 -10 22 -1 4 3 -1 16 -10 27 l-18 21 24 -20 24 -20 -6
20 c-7 18 -6 19 6 3 8 -10 17 -15 20 -11 4 3 2 12 -4 20 -6 7 -10 13 -8 14 2
0 18 2 35 3 25 2 31 -1 26 -13 -4 -13 -1 -12 16 2 11 11 26 16 31 12 6 -3 11
-2 11 3 0 16 -13 22 -26 11 -9 -7 -18 -7 -31 0 -14 8 -15 10 -3 11 13 0 13 1
0 10 -20 13 -26 12 -43 -5z m23 -5 c0 -5 -5 -10 -11 -10 -5 0 -7 5 -4 10 3 6
8 10 11 10 2 0 4 -4 4 -10z"/>
<path d="M3559 1799 c-9 -17 -8 -20 3 -16 7 2 12 11 10 18 -1 9 3 7 12 -4 10
-13 16 -15 21 -6 4 6 1 15 -6 20 -21 13 -27 11 -40 -12z"/>
<path d="M2360 1793 c0 -10 -1 -28 -1 -40 0 -25 -14 -39 -24 -23 -11 18 -24
11 -40 -20 -11 -22 -13 -35 -6 -49 6 -10 7 -21 4 -25 -3 -3 -3 -6 2 -6 11 0
34 32 35 49 0 11 -4 10 -13 -4 -10 -12 -16 -14 -21 -7 -9 15 2 34 15 27 5 -4
12 1 15 9 3 9 10 14 14 11 4 -3 13 2 20 10 7 8 16 15 21 15 4 0 -3 -11 -16
-25 -29 -28 -32 -42 -10 -42 9 0 14 6 11 13 -3 7 3 18 12 26 16 12 16 11 2 -6
-14 -18 -13 -19 4 -12 19 7 19 6 2 -13 -17 -19 -17 -19 2 -14 15 4 19 11 15
26 -3 12 -5 30 -5 40 1 16 -10 22 -31 18 -5 -1 -5 3 -2 9 4 6 13 9 21 6 8 -3
14 -1 14 5 0 5 -7 12 -15 15 -8 4 -12 10 -9 15 3 5 1 9 -5 9 -5 0 -10 -8 -11
-17z"/>
<path d="M3666 1795 c-6 -18 2 -45 15 -45 12 0 11 17 -1 25 -8 5 -7 11 1 21 7
8 7 14 1 14 -5 0 -12 -7 -16 -15z"/>
<path d="M2315 1780 c3 -5 8 -10 11 -10 2 0 4 5 4 10 0 6 -5 10 -11 10 -5 0
-7 -4 -4 -10z"/>
<path d="M3632 1778 c-18 -18 -14 -32 5 -17 10 9 14 9 10 2 -9 -14 28 -37 43
-28 6 3 7 -1 4 -10 -5 -12 -10 -13 -17 -6 -16 16 -31 13 -17 -4 6 -8 9 -19 6
-24 -4 -5 -2 -13 4 -16 6 -4 9 -1 8 7 -2 8 4 12 16 10 10 -2 15 1 12 7 -3 5 1
17 10 25 12 12 12 16 2 17 -7 1 -20 3 -28 4 -8 1 -21 3 -28 4 -7 0 -11 5 -8 9
2 4 1 13 -3 20 -5 9 -10 9 -19 0z"/>
<path d="M3558 1773 c-10 -2 -18 -9 -18 -14 0 -12 32 -8 42 6 4 6 8 2 8 -8 0
-10 4 -16 9 -13 5 4 12 0 14 -6 4 -9 6 -9 6 -1 1 13 -26 44 -37 42 -4 -1 -15
-3 -24 -6z"/>
<path d="M3438 1758 c9 -11 10 -18 2 -23 -15 -9 -12 -25 5 -25 8 0 14 3 14 8
-4 21 3 23 27 8 18 -13 25 -14 23 -4 -3 27 1 39 12 32 8 -5 8 -8 0 -14 -9 -5
-8 -10 3 -19 10 -8 16 -9 21 -1 3 5 1 10 -5 10 -6 0 -9 4 -6 8 2 4 1 14 -4 22
-7 12 -12 12 -28 -3 -24 -22 -32 -21 -33 1 0 11 -2 12 -6 4 -4 -10 -8 -10 -21
0 -15 11 -15 11 -4 -4z"/>
<path d="M3560 1748 c-2 -5 -3 -11 -4 -15 -1 -5 -4 -12 -7 -18 -9 -15 4 -40
21 -42 10 -2 16 5 17 18 2 16 -1 18 -12 9 -10 -8 -15 -8 -21 1 -5 8 -3 9 6 4
9 -6 11 -4 5 5 -5 9 -4 11 3 6 7 -4 12 -1 12 6 0 10 3 9 10 -2 5 -8 12 -11 17
-7 8 9 -17 28 -28 21 -4 -2 -10 2 -12 8 -3 7 -6 10 -7 6z"/>
<path d="M3625 1730 c-3 -11 -14 -28 -23 -37 -16 -16 -16 -16 1 -10 11 4 16 3
12 -3 -3 -6 -1 -10 4 -10 6 0 11 5 11 12 0 15 11 4 14 -14 1 -7 5 -18 9 -25 4
-6 3 -14 -2 -17 -5 -4 -12 -2 -16 4 -3 5 -11 10 -16 10 -6 0 -7 -5 -3 -12 4
-7 3 -8 -5 -4 -6 4 -9 11 -6 16 3 4 -1 11 -7 14 -7 3 -2 3 12 0 22 -4 23 -4 7
7 -14 8 -22 8 -30 0 -14 -14 -30 -14 -22 -1 4 6 3 10 -2 9 -18 -3 -34 2 -29 9
7 12 -12 38 -21 29 -4 -5 -1 -12 7 -17 13 -9 13 -10 0 -10 -13 0 -13 -1 0 -10
8 -5 11 -10 6 -10 -5 0 -3 -6 3 -14 9 -11 9 -16 0 -22 -7 -4 -9 -3 -5 4 4 7
-1 10 -13 7 -10 -2 -27 3 -38 11 -17 14 -17 15 3 5 21 -10 34 -6 34 11 0 4 -3
7 -7 7 -20 -3 -33 2 -33 12 0 8 4 8 14 0 10 -8 16 -9 21 -1 3 5 1 10 -5 10 -6
0 -9 4 -5 9 3 6 -3 15 -14 21 -17 9 -19 7 -16 -10 5 -23 4 -24 -29 -9 -14 7
-22 17 -19 23 4 6 -3 3 -14 -7 -11 -10 -24 -17 -29 -15 -13 3 -74 -31 -74 -42
0 -5 -6 -7 -14 -4 -17 6 -31 -12 -16 -21 5 -3 10 0 10 7 0 9 3 9 10 -2 6 -10
10 -11 10 -3 0 7 3 12 8 12 20 -3 25 2 12 12 -12 8 -10 9 8 4 15 -4 22 -2 20
5 -2 7 3 15 10 17 6 3 12 -1 12 -8 0 -8 6 -5 16 7 8 10 13 14 10 7 -4 -6 -2
-14 3 -17 5 -3 12 1 15 9 4 12 10 14 25 5 26 -13 16 -39 -13 -36 -13 2 -23 -3
-23 -10 0 -7 3 -11 7 -9 4 2 7 -2 7 -10 0 -8 -4 -12 -9 -9 -4 3 -10 -1 -13 -8
-8 -20 -46 -21 -43 -1 2 9 -2 18 -8 20 -16 6 -12 -55 4 -62 8 -3 22 1 32 10 9
8 20 12 24 8 3 -4 13 -8 22 -9 11 -2 12 1 5 10 -5 6 -8 21 -6 31 2 11 4 23 4
27 1 8 21 5 46 -9 11 -6 25 -12 30 -13 6 -1 9 -8 7 -16 -4 -18 12 -18 28 1 7
8 16 12 21 9 5 -3 9 -1 9 5 0 8 8 8 39 2 2 -1 -3 -9 -10 -18 -13 -15 -12 -15
12 0 24 16 27 16 43 -2 10 -11 15 -24 12 -30 -7 -10 12 -27 20 -18 3 3 7 13 8
24 2 10 11 18 22 18 30 1 61 22 59 42 0 10 -13 30 -28 46 -31 30 -38 33 -34
15 1 -7 -6 -12 -15 -12 -10 1 -16 -2 -15 -6 1 -4 -1 -8 -5 -9 -24 -3 -30 1
-25 19 3 11 1 23 -4 26 -5 3 -7 9 -4 14 3 5 1 11 -4 14 -5 4 -12 -3 -16 -14z
m19 -18 c3 -5 -1 -9 -9 -9 -8 0 -12 4 -9 9 3 4 7 8 9 8 2 0 6 -4 9 -8z m118
-57 c2 2 4 -4 4 -14 0 -12 -5 -17 -14 -14 -7 3 -12 0 -10 -8 2 -7 -6 -13 -17
-14 -11 0 -26 -4 -33 -9 -19 -12 -45 13 -31 30 6 7 7 19 3 25 -4 8 -3 9 4 5 7
-4 22 2 34 14 l23 21 16 -20 c9 -11 18 -18 21 -16z m-194 -19 c-2 -1 -14 -10
-28 -21 l-25 -20 18 22 c12 13 16 27 11 35 -6 10 -4 10 9 -1 10 -8 16 -14 15
-15z m-193 -56 c-3 -5 -12 -10 -18 -10 -7 0 -6 4 3 10 19 12 23 12 15 0z"/>
<path d="M3691 1646 c-22 -22 -29 -36 -21 -41 6 -4 16 -2 23 3 7 5 20 8 30 6
11 -1 16 0 13 3 -3 4 -1 12 5 20 9 10 8 13 0 13 -7 0 -10 4 -6 9 3 5 1 12 -3
15 -5 3 -23 -10 -41 -28z m36 3 c1 -15 -3 -19 -13 -15 -8 3 -17 -1 -20 -9 -4
-8 -11 -15 -17 -15 -6 0 2 14 18 30 16 17 29 30 30 30 0 0 1 -9 2 -21z"/>
<path d="M3804 1726 c-23 -18 -8 -42 16 -25 13 9 12 10 -2 5 -10 -3 -18 -3
-18 1 0 3 8 12 18 19 9 7 14 14 11 14 -3 0 -14 -6 -25 -14z"/>
<path d="M2253 1702 c4 -28 13 -36 20 -18 3 8 -1 20 -9 27 -12 10 -14 8 -11
-9z"/>
<path d="M2230 1700 c0 -5 5 -10 11 -10 5 0 7 5 4 10 -3 6 -8 10 -11 10 -2 0
-4 -4 -4 -10z"/>
<path d="M3417 1676 c-4 -10 1 -12 14 -9 23 6 24 9 5 16 -8 3 -17 0 -19 -7z"/>
<path d="M3353 1674 c7 -13 -33 -43 -64 -49 -10 -2 -24 4 -31 14 -7 10 -23 17
-35 16 -27 -2 -39 -12 -29 -22 4 -4 11 -1 16 7 6 8 10 10 10 4 0 -6 -10 -19
-22 -28 -23 -15 -23 -16 -4 -31 27 -20 33 -19 33 8 1 47 2 48 26 32 13 -8 28
-12 32 -8 5 5 4 1 -3 -8 -14 -19 -4 -34 12 -16 6 7 10 10 9 8 -1 -2 3 -13 9
-25 10 -19 10 -20 -5 -7 -16 13 -22 8 -18 -13 1 -5 -5 -4 -13 4 -11 8 -16 9
-17 1 -4 -32 -6 -36 -17 -33 -16 3 -16 -15 1 -22 6 -3 -3 -3 -22 0 -27 4 -32
2 -27 -11 4 -13 2 -14 -14 -5 -26 14 -30 13 -30 -7 0 -11 -3 -14 -8 -8 -4 6
-12 11 -19 10 -22 0 -21 -10 3 -22 14 -6 24 -7 24 -1 0 5 4 7 9 3 5 -3 13 0
16 6 5 7 15 3 30 -11 22 -21 29 -11 12 16 -8 14 1 24 18 18 7 -3 17 1 21 8 9
13 10 18 13 39 0 5 5 8 10 4 5 -3 12 -1 16 4 3 6 12 8 20 5 9 -4 13 1 12 15
-1 12 -5 21 -10 21 -5 0 -4 7 3 15 7 8 9 15 4 15 -4 0 -3 5 4 12 14 14 46 -8
36 -24 -5 -7 0 -7 12 0 20 11 29 66 9 58 -7 -2 -18 1 -25 7 -9 9 -11 9 -7 1z
m22 -35 c-4 -5 -1 -9 6 -9 7 0 9 -3 6 -6 -9 -9 -38 16 -31 27 3 5 10 7 15 3 5
-3 7 -10 4 -15z m-165 -39 c0 -5 -5 -10 -11 -10 -5 0 -7 5 -4 10 3 6 8 10 11
10 2 0 4 -4 4 -10z"/>
<path d="M2350 1660 c0 -5 -5 -9 -11 -7 -6 1 -13 -4 -14 -11 -2 -7 -1 -8 2 -2
3 7 10 7 20 -1 19 -16 52 -19 47 -5 -6 16 -44 38 -44 26z"/>
<path d="M3100 1627 c5 -26 4 -39 -7 -50 -13 -13 -14 -18 -1 -35 9 -14 19 -18
27 -12 10 6 8 9 -8 15 -27 8 -27 17 2 34 17 10 19 11 10 0 -17 -18 -16 -29 3
-29 9 0 12 5 8 13 -6 8 -3 8 9 -2 9 -7 24 -11 32 -7 9 3 13 2 10 -4 -3 -6 1
-7 9 -4 27 10 17 24 -15 22 -27 -3 -34 2 -54 40 -31 58 -35 60 -25 19z"/>
<path d="M2450 1639 c0 -5 5 -7 10 -4 6 3 10 8 10 11 0 2 -4 4 -10 4 -5 0 -10
-5 -10 -11z"/>
<path d="M3238 1613 c10 -4 10 -8 0 -21 -10 -12 -10 -14 0 -8 20 12 14 -1 -12
-26 -28 -27 -41 -31 -64 -20 -12 6 -25 1 -46 -19 -28 -26 -28 -28 -8 -26 12 1
22 4 22 8 0 4 11 6 25 4 14 -1 28 2 31 7 3 5 12 7 19 4 7 -2 16 2 19 10 3 9
11 12 18 8 7 -4 10 -4 6 1 -11 12 11 47 25 38 7 -4 7 0 -2 10 -7 9 -10 17 -5
17 5 0 2 5 -6 10 -8 5 -19 9 -25 9 -5 0 -4 -3 3 -6z"/>
<path d="M3062 1478 c2 -6 10 -13 16 -14 7 -1 8 0 2 3 -5 2 -8 9 -4 14 3 5 0
9 -6 9 -7 0 -10 -5 -8 -12z"/>
<path d="M3045 1440 c-3 -6 1 -7 9 -4 18 7 21 14 7 14 -6 0 -13 -4 -16 -10z"/>
<path d="M3060 1419 c0 -5 5 -7 10 -4 6 3 10 8 10 11 0 2 -4 4 -10 4 -5 0 -10
-5 -10 -11z"/>
<path d="M3110 1351 c0 -7 -5 -9 -12 -5 -7 4 -10 3 -5 -1 4 -5 18 -10 30 -12
12 -2 18 0 12 5 -5 4 -13 11 -17 16 -5 5 -8 4 -8 -3z"/>
<path d="M3148 1272 c9 -10 19 -17 21 -16 6 5 -20 34 -30 34 -5 0 -1 -8 9 -18z"/>
<path d="M3230 1241 c0 -5 6 -12 13 -14 9 -4 9 -6 -1 -6 -7 -1 -10 -6 -6 -12
9 -15 24 9 17 28 -6 15 -23 18 -23 4z"/>
</g>
</svg>
